<svg viewBox="0 0 60 60" version="1.1" xmlns="http://www.w3.org/2000/svg" xmlns:xlink="http://www.w3.org/1999/xlink" xml:space="preserve" style="fill-rule:evenodd;clip-rule:evenodd;stroke-linejoin:round;stroke-miterlimit:1.41421;">
<path d="M30,3.33067e-15C46.5685,3.33067e-15 60,13.4315 60,30C60,46.5685 46.5685,60 30,60C13.4315,60 8.88178e-15,46.5685 8.88178e-15,30C8.88178e-15,13.4315 13.4315,3.33067e-15 30,3.33067e-15Z" style="fill:rgb(52,113,160);"/>
<path d="M41.1,32.1383L39.8467,36.585L35.2733,35.975L24.6233,15.5417L26.54,14.2783L41.1,32.1383Z" style="fill:rgb(241,84,36);fill-rule:nonzero;"/>
<path d="M33.16,31.925L33.5667,32.705L36.1633,26.085L35.6833,25.4983L33.16,31.925Z" style="fill:rgb(230,229,229);fill-rule:nonzero;"/>
<path d="M31.2567,28.275L31.6633,29.0483L33.9067,23.3183L33.43,22.7317L31.2567,28.275Z" style="fill:rgb(230,229,229);fill-rule:nonzero;"/>
<path d="M38.1033,36.3517L38.7733,36.4417L40.67,31.615L40.19,31.025L38.1033,36.3517Z" style="fill:rgb(230,229,229);fill-rule:nonzero;"/>
<path d="M35.0667,35.5817L35.2733,35.975L35.6033,36.0217L38.4133,28.8483L37.9367,28.2617L35.0667,35.5817Z" style="fill:rgb(230,229,229);fill-rule:nonzero;"/>
<path d="M29.3533,24.6217L29.7567,25.395L31.6567,20.555L31.1767,19.9683L29.3533,24.6217Z" style="fill:rgb(230,229,229);fill-rule:nonzero;"/>
<path d="M25.5433,17.3117L25.9467,18.0883L27.1467,15.025L26.67,14.4383L25.5433,17.3117Z" style="fill:rgb(230,229,229);fill-rule:nonzero;"/>
<path d="M27.4467,20.965L27.8533,21.7417L29.4033,17.7883L28.9233,17.2017L27.4467,20.965Z" style="fill:rgb(230,229,229);fill-rule:nonzero;"/>
<path d="M35.0867,45.2717L26.9933,51.9983L18.9033,45.2717L24.33,15.445L29.66,15.445L35.0867,45.2717Z" style="fill:rgb(255,109,59);fill-rule:nonzero;"/>
<path d="M19.5567,41.6817L19.36,42.7517L32.89,33.1983L32.74,32.3717L19.5567,41.6817Z" style="fill:white;fill-rule:nonzero;"/>
<path d="M19.7267,45.955L20.3333,46.4583L33.5967,37.0883L33.4467,36.2617L19.7267,45.955Z" style="fill:white;fill-rule:nonzero;"/>
<path d="M26.04,51.205L35.0133,44.8717L34.8633,44.045L25.4367,50.7017L26.04,51.205Z" style="fill:white;fill-rule:nonzero;"/>
<path d="M22.58,48.3283L23.1867,48.8317L34.3033,40.9783L34.1533,40.1517L22.58,48.3283Z" style="fill:white;fill-rule:nonzero;"/>
<path d="M20.4733,36.6417L20.2767,37.715L32.1833,29.305L32.0333,28.4783L20.4733,36.6417Z" style="fill:white;fill-rule:nonzero;"/>
<path d="M21.39,31.605L21.1933,32.675L31.4733,25.415L31.3233,24.5883L21.39,31.605Z" style="fill:white;fill-rule:nonzero;"/>
<path d="M23.2233,21.5283L23.0267,22.5983L30.06,17.6317L29.9067,16.805L23.2233,21.5283Z" style="fill:white;fill-rule:nonzero;"/>
<path d="M24.1367,16.4917L23.9433,17.5583L26.9367,15.445L25.6167,15.445L24.1367,16.4917Z" style="fill:white;fill-rule:nonzero;"/>
<path d="M22.3067,26.565L22.1133,27.635L30.7667,21.5217L30.6133,20.6983L22.3067,26.565Z" style="fill:white;fill-rule:nonzero;"/>
<path d="M29.66,15.445L24.33,15.445L21.98,10.1983L22.9767,7.99833L31.0133,7.99833L32.0067,10.1983L29.66,15.445Z" style="fill:rgb(241,84,36);fill-rule:nonzero;"/>
<path d="M22.5667,8.90167L30.1833,14.2783L30.4967,13.5683L22.89,8.195L22.5667,8.90167Z" style="fill:white;fill-rule:nonzero;"/>
<path d="M23.7333,14.115L25.6167,15.445L26.9367,15.445L23.1233,12.7517L23.7333,14.115Z" style="fill:white;fill-rule:nonzero;"/>
<path d="M27.51,7.99833L31.6733,10.9417L31.9933,10.235L28.8267,7.99833L27.51,7.99833Z" style="fill:white;fill-rule:nonzero;"/>
</svg>
