<svg viewBox="0 0 60 60" version="1.1" xmlns="http://www.w3.org/2000/svg" xmlns:xlink="http://www.w3.org/1999/xlink" xml:space="preserve" style="fill-rule:evenodd;clip-rule:evenodd;stroke-linejoin:round;stroke-miterlimit:1.41421;">
<path d="M30,3.33067e-15C46.5685,3.33067e-15 60,13.4315 60,30C60,46.5685 46.5685,60 30,60C13.4315,60 8.88178e-15,46.5685 8.88178e-15,30C8.88178e-15,13.4315 13.4315,3.33067e-15 30,3.33067e-15Z" style="fill:rgb(255,109,59);"/>
<path d="M44.7033,49.7517L15.2933,49.7517L15.2933,48.0417C15.2933,47.8383 15.37,47.635 15.5266,47.4817C15.68,47.3283 15.8833,47.2483 16.0866,47.2483L43.9133,47.2483C44.1133,47.2483 44.3167,47.3283 44.47,47.4817C44.6267,47.635 44.7033,47.8383 44.7033,48.0417L44.7033,49.7517Z" style="fill:rgb(33,53,70);fill-rule:nonzero;"/>
<path d="M46.3633,50.075C46.1433,49.8583 45.86,49.7517 45.5767,49.7517L14.4233,49.7517C14.14,49.7517 13.8567,49.8583 13.6367,50.075C13.4233,50.2917 13.3133,50.575 13.3133,50.8583L13.3133,54.0017L46.6833,54.0017L46.6833,50.8583C46.6833,50.575 46.5767,50.2917 46.3633,50.075Z" style="fill:rgb(43,68,87);fill-rule:nonzero;"/>
<path d="M35.4867,38.315C35.4867,37.5617 34.87,36.945 34.1133,36.945L25.8833,36.945C25.13,36.945 24.5133,37.5617 24.5133,38.315C24.5133,39.0717 25.13,39.6883 25.8833,39.6883L34.1133,39.6883C34.87,39.6883 35.4867,39.0717 35.4867,38.315Z" style="fill:rgb(33,53,70);fill-rule:nonzero;"/>
<path d="M33.43,44.7317L33.43,39.6883L26.57,39.6883L26.57,44.7317C26.57,46.125 25.4433,47.2483 24.0533,47.2483L35.9433,47.2483C34.5533,47.2483 33.43,46.125 33.43,44.7317Z" style="fill:rgb(43,68,87);fill-rule:nonzero;"/>
<path d="M39.8933,47.2483L41.23,47.2483L41.23,45.8316L39.8933,45.835L39.8933,47.2483Z" style="fill:rgb(43,68,87);fill-rule:nonzero;"/>
<rect x="39.6233" y="44.6317" width="1.87335" height="1.19998" style="fill:rgb(33,53,70);fill-rule:nonzero;"/>
<rect x="39.49" y="44.295" width="2.14331" height="0.33667" style="fill:rgb(33,53,70);fill-rule:nonzero;"/>
<path d="M18.7666,47.2483L20.1067,47.2483L20.1067,45.8316L18.7666,45.835L18.7666,47.2483Z" style="fill:rgb(43,68,87);fill-rule:nonzero;"/>
<rect x="18.5" y="44.6317" width="1.87335" height="1.19998" style="fill:rgb(33,53,70);fill-rule:nonzero;"/>
<rect x="18.3667" y="44.295" width="2.14001" height="0.33667" style="fill:rgb(33,53,70);fill-rule:nonzero;"/>
<path d="M36.86,26.035C36.86,29.805 33.7733,32.895 30,32.895C26.2267,32.895 23.1367,29.805 23.1367,26.035L23.1367,19.745C23.1367,15.9717 26.2267,12.885 30,12.885C33.7733,12.885 36.86,15.9717 36.86,19.745L36.86,26.035Z" style="fill:rgb(255,213,92);fill-rule:nonzero;"/>
<path d="M25.4167,18.0017C25.31,18.0017 25.2033,17.975 25.1033,17.925C24.7733,17.7483 24.65,17.345 24.8233,17.015C25.8434,15.0883 27.8266,13.8916 30,13.8916C30.37,13.8916 30.6733,14.1917 30.6733,14.565C30.6733,14.935 30.37,15.235 30,15.235C28.3266,15.235 26.7967,16.1583 26.01,17.645C25.89,17.8717 25.6566,18.0017 25.4167,18.0017Z" style="fill:rgb(255,248,151);fill-rule:nonzero;"/>
<path d="M24.8167,22.3583C24.4467,22.3583 24.1466,22.0583 24.1466,21.6883L24.1466,19.745C24.1466,19.5083 24.1633,19.265 24.1933,19.015C24.2333,18.675 24.5233,18.4283 24.86,18.4283C24.8867,18.4283 24.9133,18.4317 24.9433,18.435C25.3133,18.4817 25.57,18.815 25.5266,19.185C25.5033,19.375 25.49,19.565 25.49,19.745L25.49,21.6883C25.49,22.0583 25.1867,22.3583 24.8167,22.3583Z" style="fill:rgb(255,248,151);fill-rule:nonzero;"/>
<rect x="27.14" y="32.265" width="5.71667" height="4.67999" style="fill:rgb(255,198,64);fill-rule:nonzero;"/>
<path d="M31.1433,30.255L31.0633,30.0917C32.33,29.455 33.18,27.7617 33.18,25.8683C33.18,23.3983 31.7533,21.385 30,21.385C28.2433,21.385 26.8167,23.3983 26.8167,25.8683C26.8167,27.7617 27.67,29.455 28.9367,30.0917L28.8533,30.255C27.5266,29.5883 26.6333,27.825 26.6333,25.8683C26.6333,23.295 28.1433,21.2016 30,21.2016C31.8567,21.2016 33.3633,23.295 33.3633,25.8683C33.3633,27.825 32.47,29.5883 31.1433,30.255Z" style="fill:rgb(43,68,87);fill-rule:nonzero;"/>
<rect x="28.7433" y="29.9317" width="0.456665" height="7.01334" style="fill:rgb(43,68,87);fill-rule:nonzero;"/>
<rect x="30.8" y="29.9317" width="0.456665" height="7.01334" style="fill:rgb(43,68,87);fill-rule:nonzero;"/>
<path d="M30,6.00166C29.81,6.00166 29.6566,6.15498 29.6566,6.34499L29.6566,10.2317C29.6566,10.4216 29.81,10.575 30,10.575C30.1867,10.575 30.34,10.4216 30.34,10.2317L30.34,6.34499C30.34,6.15498 30.1867,6.00166 30,6.00166Z" style="fill:white;fill-rule:nonzero;"/>
<path d="M35.8067,7.28835C35.6367,7.20833 35.43,7.28499 35.35,7.455L33.71,10.9783C33.63,11.1483 33.7033,11.355 33.8733,11.435C34.0433,11.515 34.25,11.4383 34.33,11.2683L35.9733,7.74498C36.0533,7.575 35.9767,7.36833 35.8067,7.28835Z" style="fill:white;fill-rule:nonzero;"/>
<path d="M24.1933,7.28835C24.02,7.36833 23.9467,7.575 24.0266,7.74498L25.67,11.2683C25.7467,11.4383 25.9533,11.515 26.1233,11.435C26.2933,11.355 26.37,11.1483 26.29,10.9783L24.6466,7.455C24.5667,7.28499 24.3633,7.20833 24.1933,7.28835Z" style="fill:white;fill-rule:nonzero;"/>
</svg>
