<svg viewBox="0 0 60 60" version="1.1" xmlns="http://www.w3.org/2000/svg" xmlns:xlink="http://www.w3.org/1999/xlink" xml:space="preserve" style="fill-rule:evenodd;clip-rule:evenodd;stroke-linejoin:round;stroke-miterlimit:1.41421;">
<path d="M30,3.33067e-15C46.5685,3.33067e-15 60,13.4315 60,30C60,46.5685 46.5685,60 30,60C13.4315,60 8.88178e-15,46.5685 8.88178e-15,30C8.88178e-15,13.4315 13.4315,3.33067e-15 30,3.33067e-15Z" style="fill:rgb(71,239,183);"/>
<path d="M30,10.7083C27.9633,10.7083 26.3067,12.365 26.3067,14.4017C26.3067,16.435 27.9633,18.0917 30,18.0917C32.0334,18.0917 33.69,16.435 33.69,14.4017C33.69,12.365 32.0334,10.7083 30,10.7083ZM30,18.8017C27.5733,18.8017 25.6,16.825 25.6,14.4017C25.6,11.975 27.5733,10.0017 30,10.0017C32.4267,10.0017 34.4,11.975 34.4,14.4017C34.4,16.825 32.4267,18.8017 30,18.8017Z" style="fill:rgb(43,68,87);fill-rule:nonzero;"/>
<path d="M45.17,34.8283C45.17,43.2083 38.38,50.0017 30,50.0017C21.62,50.0017 14.8267,43.2083 14.8267,34.8283C14.8267,26.4517 21.62,19.6584 30,19.6584C38.38,19.6584 45.17,26.4517 45.17,34.8283Z" style="fill:rgb(43,68,87);fill-rule:nonzero;"/>
<path d="M43.4,34.8283C43.4,42.2317 37.4,48.2317 30,48.2317C22.5966,48.2317 16.6,42.2317 16.6,34.8283C16.6,27.4283 22.5966,21.4283 30,21.4283C37.4,21.4283 43.4,27.4283 43.4,34.8283Z" style="fill:white;fill-rule:nonzero;"/>
<path d="M33.54,28.6183C33.54,30.5717 31.9533,32.1584 30,32.1584C28.0434,32.1584 26.46,30.5717 26.46,28.6183C26.46,26.6617 28.0434,25.0783 30,25.0783C31.9533,25.0783 33.54,26.6617 33.54,28.6183Z" style="fill:rgb(217,216,215);fill-rule:nonzero;"/>
<path d="M30,42.5583C29.16,42.5583 28.48,41.8784 28.48,41.0384C28.48,40.2017 29.16,39.5217 30,39.5217C30.8366,39.5217 31.5167,40.2017 31.5167,41.0384C31.5167,41.8784 30.8366,42.5583 30,42.5583ZM30,39.0183C28.88,39.0183 27.9734,39.9217 27.9734,41.0384C27.9734,42.1584 28.88,43.0617 30,43.0617C31.1167,43.0617 32.02,42.1584 32.02,41.0384C32.02,39.9217 31.1167,39.0183 30,39.0183Z" style="fill:rgb(217,216,215);fill-rule:nonzero;"/>
<rect x="29.8733" y="22.305" width="0.253357" height="1.11331" style="fill:rgb(217,216,215);fill-rule:nonzero;"/>
<path d="M28.9333,23.465L28.68,23.4917L28.5633,22.385L28.8133,22.3583L28.9333,23.465Z" style="fill:rgb(217,216,215);fill-rule:nonzero;"/>
<path d="M27.75,23.6417L27.5033,23.6917L27.27,22.605L27.52,22.5517L27.75,23.6417Z" style="fill:rgb(217,216,215);fill-rule:nonzero;"/>
<path d="M26.5934,23.9384L26.35,24.015L26.01,22.955L26.25,22.8784L26.5934,23.9384Z" style="fill:rgb(217,216,215);fill-rule:nonzero;"/>
<path d="M25.4734,24.355L25.24,24.455L24.79,23.4384L25.02,23.335L25.4734,24.355Z" style="fill:rgb(217,216,215);fill-rule:nonzero;"/>
<path d="M24.4034,24.8817L24.1833,25.0084L23.63,24.045L23.8466,23.9217L24.4034,24.8817Z" style="fill:rgb(217,216,215);fill-rule:nonzero;"/>
<path d="M23.3933,25.5217L23.19,25.6717L22.5334,24.7717L22.74,24.6217L23.3933,25.5217Z" style="fill:rgb(217,216,215);fill-rule:nonzero;"/>
<path d="M22.4567,26.265L22.27,26.4317L21.5233,25.605L21.7133,25.4384L22.4567,26.265Z" style="fill:rgb(217,216,215);fill-rule:nonzero;"/>
<path d="M21.6034,27.0984L21.4333,27.2884L20.6067,26.5417L20.7766,26.355L21.6034,27.0984Z" style="fill:rgb(217,216,215);fill-rule:nonzero;"/>
<path d="M20.84,28.0183L20.6933,28.2217L19.7934,27.5717L19.94,27.365L20.84,28.0183Z" style="fill:rgb(217,216,215);fill-rule:nonzero;"/>
<path d="M20.18,29.0117L20.0533,29.2317L19.09,28.675L19.2166,28.455L20.18,29.0117Z" style="fill:rgb(217,216,215);fill-rule:nonzero;"/>
<path d="M19.6267,30.0717L19.52,30.3017L18.5067,29.8517L18.61,29.6183L19.6267,30.0717Z" style="fill:rgb(217,216,215);fill-rule:nonzero;"/>
<path d="M19.1833,31.1817L19.1067,31.4217L18.05,31.0783L18.1267,30.8383L19.1833,31.1817Z" style="fill:rgb(217,216,215);fill-rule:nonzero;"/>
<path d="M18.8633,32.3317L18.81,32.5783L17.72,32.3484L17.7733,32.1017L18.8633,32.3317Z" style="fill:rgb(217,216,215);fill-rule:nonzero;"/>
<path d="M18.6634,33.5117L18.6367,33.7617L17.53,33.645L17.5567,33.395L18.6634,33.5117Z" style="fill:rgb(217,216,215);fill-rule:nonzero;"/>
<rect x="17.4734" y="34.7017" width="1.11664" height="0.253326" style="fill:rgb(217,216,215);fill-rule:nonzero;"/>
<path d="M18.6367,35.8983L18.6634,36.1483L17.5567,36.265L17.53,36.0117L18.6367,35.8983Z" style="fill:rgb(217,216,215);fill-rule:nonzero;"/>
<path d="M18.81,37.0783L18.8633,37.325L17.7733,37.555L17.72,37.3083L18.81,37.0783Z" style="fill:rgb(217,216,215);fill-rule:nonzero;"/>
<path d="M19.1067,38.235L19.1833,38.475L18.1267,38.8217L18.0467,38.5783L19.1067,38.235Z" style="fill:rgb(217,216,215);fill-rule:nonzero;"/>
<path d="M19.52,39.355L19.6267,39.585L18.61,40.0384L18.5067,39.8083L19.52,39.355Z" style="fill:rgb(217,216,215);fill-rule:nonzero;"/>
<path d="M20.0533,40.425L20.18,40.645L19.2166,41.2017L19.09,40.9817L20.0533,40.425Z" style="fill:rgb(217,216,215);fill-rule:nonzero;"/>
<path d="M20.6933,41.435L20.84,41.6383L19.94,42.2917L19.7934,42.0883L20.6933,41.435Z" style="fill:rgb(217,216,215);fill-rule:nonzero;"/>
<path d="M21.4333,42.3717L21.6034,42.5583L20.7766,43.305L20.6067,43.115L21.4333,42.3717Z" style="fill:rgb(217,216,215);fill-rule:nonzero;"/>
<path d="M22.27,43.225L22.4567,43.395L21.7133,44.2217L21.5233,44.0517L22.27,43.225Z" style="fill:rgb(217,216,215);fill-rule:nonzero;"/>
<path d="M23.19,43.9883L23.3933,44.135L22.74,45.035L22.5334,44.8883L23.19,43.9883Z" style="fill:rgb(217,216,215);fill-rule:nonzero;"/>
<path d="M24.1833,44.6483L24.4034,44.775L23.8466,45.7383L23.6267,45.6117L24.1833,44.6483Z" style="fill:rgb(217,216,215);fill-rule:nonzero;"/>
<path d="M25.24,45.2017L25.4734,45.305L25.02,46.3217L24.7867,46.2184L25.24,45.2017Z" style="fill:rgb(217,216,215);fill-rule:nonzero;"/>
<path d="M26.35,45.6417L26.5934,45.7217L26.25,46.7784L26.01,46.7017L26.35,45.6417Z" style="fill:rgb(217,216,215);fill-rule:nonzero;"/>
<path d="M27.5033,45.965L27.75,46.0183L27.52,47.105L27.27,47.055L27.5033,45.965Z" style="fill:rgb(217,216,215);fill-rule:nonzero;"/>
<path d="M28.68,46.165L28.9333,46.1917L28.8133,47.2983L28.5633,47.2717L28.68,46.165Z" style="fill:rgb(217,216,215);fill-rule:nonzero;"/>
<rect x="29.8733" y="46.2417" width="0.253357" height="1.11334" style="fill:rgb(217,216,215);fill-rule:nonzero;"/>
<path d="M31.0667,46.1917L31.3167,46.165L31.4333,47.2717L31.1833,47.2983L31.0667,46.1917Z" style="fill:rgb(217,216,215);fill-rule:nonzero;"/>
<path d="M32.2467,46.0183L32.4967,45.965L32.7267,47.055L32.48,47.105L32.2467,46.0183Z" style="fill:rgb(217,216,215);fill-rule:nonzero;"/>
<path d="M33.4034,45.7217L33.6467,45.6417L33.99,46.7017L33.75,46.7817L33.4034,45.7217Z" style="fill:rgb(217,216,215);fill-rule:nonzero;"/>
<path d="M34.5266,45.305L34.7567,45.2017L35.21,46.2184L34.9767,46.3217L34.5266,45.305Z" style="fill:rgb(217,216,215);fill-rule:nonzero;"/>
<path d="M35.5934,44.775L35.8133,44.6483L36.37,45.6117L36.15,45.7383L35.5934,44.775Z" style="fill:rgb(217,216,215);fill-rule:nonzero;"/>
<path d="M36.6034,44.135L36.8067,43.9883L37.4633,44.8883L37.2567,45.035L36.6034,44.135Z" style="fill:rgb(217,216,215);fill-rule:nonzero;"/>
<path d="M37.54,43.395L37.73,43.225L38.4734,44.0517L38.2834,44.2217L37.54,43.395Z" style="fill:rgb(217,216,215);fill-rule:nonzero;"/>
<path d="M38.3933,42.5583L38.5633,42.3717L39.39,43.115L39.2234,43.305L38.3933,42.5583Z" style="fill:rgb(217,216,215);fill-rule:nonzero;"/>
<path d="M39.1566,41.6383L39.3067,41.435L40.2067,42.0883L40.0567,42.2917L39.1566,41.6383Z" style="fill:rgb(217,216,215);fill-rule:nonzero;"/>
<path d="M39.8167,40.645L39.9433,40.425L40.91,40.9817L40.78,41.2017L39.8167,40.645Z" style="fill:rgb(217,216,215);fill-rule:nonzero;"/>
<path d="M40.3733,39.585L40.4734,39.355L41.49,39.8083L41.39,40.0384L40.3733,39.585Z" style="fill:rgb(217,216,215);fill-rule:nonzero;"/>
<path d="M40.8133,38.475L40.89,38.235L41.95,38.5783L41.87,38.8217L40.8133,38.475Z" style="fill:rgb(217,216,215);fill-rule:nonzero;"/>
<path d="M41.1367,37.325L41.1867,37.0783L42.2766,37.3083L42.2234,37.5583L41.1367,37.325Z" style="fill:rgb(217,216,215);fill-rule:nonzero;"/>
<path d="M41.3333,36.1483L41.36,35.8983L42.47,36.0117L42.44,36.265L41.3333,36.1483Z" style="fill:rgb(217,216,215);fill-rule:nonzero;"/>
<path d="M41.41,34.955L41.41,34.7017L42.52,34.7017L42.5233,34.955L41.41,34.955Z" style="fill:rgb(217,216,215);fill-rule:nonzero;"/>
<path d="M41.36,33.7617L41.3333,33.5117L42.44,33.395L42.47,33.645L41.36,33.7617Z" style="fill:rgb(217,216,215);fill-rule:nonzero;"/>
<path d="M41.1867,32.5817L41.1367,32.3317L42.2234,32.1017L42.2766,32.3484L41.1867,32.5817Z" style="fill:rgb(217,216,215);fill-rule:nonzero;"/>
<path d="M40.89,31.4217L40.8133,31.1817L41.87,30.8383L41.95,31.0783L40.89,31.4217Z" style="fill:rgb(217,216,215);fill-rule:nonzero;"/>
<path d="M40.4734,30.3017L40.3733,30.0717L41.39,29.6183L41.4933,29.8517L40.4734,30.3017Z" style="fill:rgb(217,216,215);fill-rule:nonzero;"/>
<path d="M39.9467,29.2317L39.8167,29.015L40.78,28.455L40.91,28.675L39.9467,29.2317Z" style="fill:rgb(217,216,215);fill-rule:nonzero;"/>
<path d="M39.3067,28.225L39.1566,28.0183L40.0567,27.365L40.2067,27.5717L39.3067,28.225Z" style="fill:rgb(217,216,215);fill-rule:nonzero;"/>
<path d="M38.5633,27.2884L38.3933,27.0984L39.2234,26.355L39.39,26.5417L38.5633,27.2884Z" style="fill:rgb(217,216,215);fill-rule:nonzero;"/>
<path d="M37.73,26.4317L37.54,26.265L38.2834,25.4384L38.4734,25.605L37.73,26.4317Z" style="fill:rgb(217,216,215);fill-rule:nonzero;"/>
<path d="M36.8067,25.6717L36.6034,25.5217L37.26,24.6217L37.4633,24.7717L36.8067,25.6717Z" style="fill:rgb(217,216,215);fill-rule:nonzero;"/>
<path d="M35.8133,25.0084L35.5966,24.8817L36.15,23.9217L36.37,24.045L35.8133,25.0084Z" style="fill:rgb(217,216,215);fill-rule:nonzero;"/>
<path d="M34.7567,24.455L34.5266,24.355L34.9767,23.335L35.21,23.4384L34.7567,24.455Z" style="fill:rgb(217,216,215);fill-rule:nonzero;"/>
<path d="M33.6467,24.015L33.4034,23.9384L33.75,22.8784L33.99,22.955L33.6467,24.015Z" style="fill:rgb(217,216,215);fill-rule:nonzero;"/>
<path d="M32.4967,23.6917L32.25,23.6417L32.48,22.5517L32.7267,22.605L32.4967,23.6917Z" style="fill:rgb(217,216,215);fill-rule:nonzero;"/>
<path d="M31.32,23.4917L31.0667,23.465L31.1833,22.3583L31.4333,22.385L31.32,23.4917Z" style="fill:rgb(217,216,215);fill-rule:nonzero;"/>
<path d="M27.6667,36.1417L27.4633,35.6817L41.39,29.4917L41.5966,29.9517L27.6667,36.1417Z" style="fill:rgb(255,109,59);fill-rule:nonzero;"/>
<path d="M31.01,34.8283C31.01,35.3883 30.5567,35.8417 30,35.8417C29.44,35.8417 28.9867,35.3883 28.9867,34.8283C28.9867,34.2717 29.44,33.8184 30,33.8184C30.5567,33.8184 31.01,34.2717 31.01,34.8283Z" style="fill:rgb(82,102,119);fill-rule:nonzero;"/>
<rect x="28.7333" y="17.1817" width="2.53003" height="2.52667" style="fill:rgb(82,102,119);fill-rule:nonzero;"/>
<rect x="27.9734" y="15.1584" width="4.04663" height="2.02332" style="fill:rgb(43,68,87);fill-rule:nonzero;"/>
<path d="M39.8967,23.3383L41.4933,24.9384L42.21,24.2217L40.6133,22.6217L39.8967,23.3383Z" style="fill:rgb(82,102,119);fill-rule:nonzero;"/>
<path d="M40.2934,22.305L42.53,24.5417L43.96,23.1083L41.7234,20.8717L40.2934,22.305Z" style="fill:rgb(43,68,87);fill-rule:nonzero;"/>
<path d="M41.5667,20.7117L44.1233,23.2683L44.52,22.8683L41.97,20.3117L41.5667,20.7117Z" style="fill:rgb(43,68,87);fill-rule:nonzero;"/>
<path d="M20.1,23.3383L18.5033,24.9384L17.7867,24.2217L19.3867,22.6217L20.1,23.3383Z" style="fill:rgb(82,102,119);fill-rule:nonzero;"/>
<path d="M19.7033,22.305L17.4666,24.5417L16.0367,23.1083L18.27,20.8717L19.7033,22.305Z" style="fill:rgb(43,68,87);fill-rule:nonzero;"/>
<path d="M18.4333,20.7117L15.8767,23.2683L15.4734,22.8683L18.03,20.3117L18.4333,20.7117Z" style="fill:rgb(43,68,87);fill-rule:nonzero;"/>
</svg>
