<svg viewBox="0 0 200 200" version="1.1" xmlns="http://www.w3.org/2000/svg" xmlns:xlink="http://www.w3.org/1999/xlink" xml:space="preserve" style="fill-rule:evenodd;clip-rule:evenodd;stroke-linejoin:round;stroke-miterlimit:1.41;"> <g><g><g><rect x="3.84" y="3.84" width="61.24" height="61.24" style="fill:rgb(255,213,92);fill-rule:nonzero;"/> </g><g><path d="M40.24,42.78C40.24,43.48 39.67,44.05 38.98,44.05L22.55,44.05C21.86,44.05 21.29,43.48 21.29,42.78L21.29,13.72C21.29,13.03 21.86,12.46 22.55,12.46L38.98,12.46C39.67,12.46 40.24,13.03 40.24,13.72L40.24,42.78Z" style="fill:rgb(241,84,36);fill-rule:nonzero;"/> </g><g><rect x="23.82" y="14.99" width="13.89" height="12.63" style="fill:rgb(242,242,242);fill-rule:nonzero;"/> </g><g><path d="M37.08,35.83C37.08,39.32 34.25,42.15 30.77,42.15C27.28,42.15 24.45,39.32 24.45,35.83C24.45,32.34 27.28,29.52 30.77,29.52C34.25,29.52 37.08,32.34 37.08,35.83Z" style="fill:rgb(255,109,59);fill-rule:nonzero;"/> </g><g><path d="M34.92,35.83C34.92,38.13 33.06,39.98 30.77,39.98C28.47,39.98 26.61,38.13 26.61,35.83C26.61,33.54 28.47,31.68 30.77,31.68C33.06,31.68 34.92,33.54 34.92,35.83Z" style="fill:white;fill-rule:nonzero;"/> </g><g><path d="M34.38,35.83C34.38,37.83 32.76,39.44 30.77,39.44C28.77,39.44 27.16,37.83 27.16,35.83C27.16,33.84 28.77,32.22 30.77,32.22C32.76,32.22 34.38,33.84 34.38,35.83Z" style="fill:rgb(241,84,36);fill-rule:nonzero;"/> </g><g><path d="M29.79,34.37L32.32,35.83L29.79,37.29L29.79,34.37Z" style="fill:white;fill-rule:nonzero;"/> </g><g><path d="M42.14,40.44C42.14,40.60 42.08,40.76 41.95,40.89C41.83,41.01 41.67,41.07 41.51,41.07L40.24,41.07L40.24,39.18L41.51,39.18C41.67,39.18 41.83,39.24 41.95,39.36C42.08,39.49 42.14,39.65 42.14,39.81L42.14,40.44Z" style="fill:rgb(43,68,87);fill-rule:nonzero;"/> </g><g><path d="M42.52,52.12L35.15,52.12C34.43,52.12 33.75,51.84 33.25,51.33C32.74,50.83 32.46,50.15 32.46,49.44L32.46,46.59L32.78,46.59L32.78,49.44C32.78,50.07 33.02,50.67 33.47,51.11C33.92,51.56 34.51,51.81 35.15,51.81L42.52,51.81L42.52,52.12Z" style="fill:white;fill-rule:nonzero;"/> </g><g><path d="M33.09,47.23L33.00,47.45L32.78,47.54L32.46,47.54L32.24,47.45L32.14,47.23L32.14,46.59L33.09,46.59L33.09,47.23Z" style="fill:rgb(242,242,242);fill-rule:nonzero;"/> </g><g><path d="M24.61,51.21L24.29,51.21L24.29,49.12C24.29,48.40 24.57,47.73 25.08,47.22C25.58,46.71 26.26,46.44 26.98,46.44L43.15,46.44C43.78,46.44 44.38,46.19 44.82,45.74C45.27,45.29 45.52,44.70 45.52,44.07L45.52,42.65C45.52,42.02 45.27,41.42 44.82,40.98C44.38,40.53 43.78,40.28 43.15,40.28L42.14,40.28L42.14,39.97L43.15,39.97C43.86,39.97 44.54,40.25 45.05,40.75C45.55,41.26 45.83,41.93 45.83,42.65L45.83,44.07C45.83,44.78 45.55,45.46 45.05,45.97C44.54,46.47 43.86,46.75 43.15,46.75L26.98,46.75C26.34,46.75 25.75,47.00 25.30,47.45C24.85,47.89 24.61,48.49 24.61,49.12L24.61,51.21Z" style="fill:white;fill-rule:nonzero;"/> </g><g><path d="M26.50,54.41C26.50,55.54 25.58,56.46 24.45,56.46C23.31,56.46 22.39,55.54 22.39,54.41C22.39,53.27 23.31,52.35 24.45,52.35C25.58,52.35 26.50,53.27 26.50,54.41Z" style="fill:white;fill-rule:nonzero;"/> </g><g><path d="M24.01,50.72L23.87,50.78L23.82,50.91L23.82,52.88C23.82,53.25 23.84,54.83 24.45,54.83C25.06,54.83 25.08,53.25 25.08,52.88L25.08,50.91L25.02,50.78L24.89,50.72L24.01,50.72Z" style="fill:rgb(43,68,87);fill-rule:nonzero;"/> </g><g><path d="M45.58,49.91C46.71,49.91 47.63,50.83 47.63,51.96C47.63,53.10 46.71,54.02 45.58,54.02C44.45,54.02 43.53,53.10 43.53,51.96C43.53,50.83 44.45,49.91 45.58,49.91Z" style="fill:white;fill-rule:nonzero;"/> </g><g><path d="M41.89,52.41L41.95,52.54L42.08,52.60L44.06,52.60C44.42,52.60 46.00,52.57 46.00,51.96C46.00,51.35 44.42,51.33 44.06,51.33L42.08,51.33L41.95,51.39L41.89,51.52L41.89,52.41Z" style="fill:rgb(43,68,87);fill-rule:nonzero;"/> </g><g><clipPath id="tag1"> <rect x="23.82" y="14.99" width="13.89" height="12.63"/> </clipPath> <g clip-path="url(#tag1)"> <path d="M35.97,37.14L40.86,32.25L18.90,10.30L14.02,15.18L35.97,37.14Z" style="fill:white;fill-rule:nonzero;"/> <path d="M42.37,33.35L42.80,32.91L20.85,10.96L20.42,11.39L42.37,33.35Z" style="fill:white;fill-rule:nonzero;"/> <path d="M43.97,32.20L46.24,29.93L24.29,7.98L22.02,10.24L43.97,32.20Z" style="fill:white;fill-rule:nonzero;"/> <path d="M49.33,29.41L50.81,27.94L28.86,5.98L27.38,7.46L49.33,29.41Z" style="fill:white;fill-rule:nonzero;"/> </g> </g> <g> <rect x="134.90" y="3.84" width="61.25" height="61.24" style="fill:rgb(43,68,87);fill-rule:nonzero;"/> </g><g><rect x="164.82" y="46.94" width="1.42" height="4.69" style="fill:rgb(230,229,229);fill-rule:nonzero;"/> </g><g><rect x="150.84" y="52.10" width="29.38" height="1.41" style="fill:rgb(230,229,229);fill-rule:nonzero;"/> </g><g><rect x="163.88" y="51.16" width="3.30" height="3.30" style="fill:rgb(204,203,202);fill-rule:nonzero;"/> </g><g><rect x="150.84" y="23.85" width="29.38" height="23.09" style="fill:rgb(204,203,202);fill-rule:nonzero;"/> </g><g><path d="M181.96,23.44C181.96,23.66 181.77,23.85 181.55,23.85L149.51,23.85C149.28,23.85 149.10,23.66 149.10,23.44L149.10,14.87C149.10,14.64 149.28,14.46 149.51,14.46L181.55,14.46C181.77,14.46 181.96,14.64 181.96,14.87L181.96,23.44Z" style="fill:rgb(230,229,229);fill-rule:nonzero;"/> </g><g><rect x="150.05" y="15.41" width="30.95" height="7.47" style="fill:white;fill-rule:nonzero;"/> </g><g><path d="M178.92,19.15C178.92,19.63 178.53,20.01 178.06,20.01C177.58,20.01 177.20,19.63 177.20,19.15C177.20,18.68 177.58,18.29 178.06,18.29C178.53,18.29 178.92,18.68 178.92,19.15Z" style="fill:rgb(204,203,202);fill-rule:nonzero;"/> </g><g><rect x="153.31" y="17.30" width="0.75" height="0.75" style="fill:rgb(204,203,202);fill-rule:nonzero;"/> </g><g><rect x="155.65" y="17.30" width="0.75" height="0.75" style="fill:rgb(204,203,202);fill-rule:nonzero;"/> </g><g><rect x="157.98" y="17.30" width="0.75" height="0.75" style="fill:rgb(204,203,202);fill-rule:nonzero;"/> </g><g><rect x="160.32" y="17.30" width="0.75" height="0.75" style="fill:rgb(204,203,202);fill-rule:nonzero;"/> </g><g><rect x="162.65" y="17.30" width="0.75" height="0.75" style="fill:rgb(204,203,202);fill-rule:nonzero;"/> </g><g><rect x="153.31" y="20.25" width="0.75" height="0.75" style="fill:rgb(204,203,202);fill-rule:nonzero;"/> </g><g><rect x="155.65" y="20.25" width="0.75" height="0.75" style="fill:rgb(204,203,202);fill-rule:nonzero;"/> </g><g><rect x="157.98" y="20.25" width="0.75" height="0.75" style="fill:rgb(204,203,202);fill-rule:nonzero;"/> </g><g><rect x="160.32" y="20.25" width="0.75" height="0.75" style="fill:rgb(204,203,202);fill-rule:nonzero;"/> </g><g><rect x="162.65" y="20.25" width="0.75" height="0.75" style="fill:rgb(204,203,202);fill-rule:nonzero;"/> </g><g><rect x="154.45" y="18.77" width="0.75" height="0.75" style="fill:rgb(204,203,202);fill-rule:nonzero;"/> </g><g><rect x="156.78" y="18.77" width="0.75" height="0.75" style="fill:rgb(204,203,202);fill-rule:nonzero;"/> </g><g><rect x="159.11" y="18.77" width="0.76" height="0.75" style="fill:rgb(204,203,202);fill-rule:nonzero;"/> </g><g><rect x="161.45" y="18.77" width="0.75" height="0.75" style="fill:rgb(204,203,202);fill-rule:nonzero;"/> </g><g><rect x="163.78" y="18.77" width="0.75" height="0.75" style="fill:rgb(204,203,202);fill-rule:nonzero;"/> </g><g><rect x="167.64" y="18.77" width="6.46" height="0.75" style="fill:rgb(204,203,202);fill-rule:nonzero;"/> </g><g><rect x="181.96" y="15.74" width="1.36" height="6.82" style="fill:rgb(204,203,202);fill-rule:nonzero;"/> </g><g><path d="M182.85,16.42C182.85,16.54 182.76,16.63 182.64,16.63C182.52,16.63 182.42,16.54 182.42,16.42C182.42,16.30 182.52,16.20 182.64,16.20C182.76,16.20 182.85,16.30 182.85,16.42Z" style="fill:white;fill-rule:nonzero;"/> </g><g><path d="M182.85,21.89C182.85,22.01 182.76,22.10 182.64,22.10C182.52,22.10 182.42,22.01 182.42,21.89C182.42,21.77 182.52,21.67 182.64,21.67C182.76,21.67 182.85,21.77 182.85,21.89Z" style="fill:white;fill-rule:nonzero;"/> </g><g><rect x="147.74" y="15.74" width="1.36" height="6.82" style="fill:rgb(204,203,202);fill-rule:nonzero;"/> </g><g><path d="M148.63,16.42C148.63,16.54 148.54,16.63 148.42,16.63C148.30,16.63 148.20,16.54 148.20,16.42C148.20,16.30 148.30,16.20 148.42,16.20C148.54,16.20 148.63,16.30 148.63,16.42Z" style="fill:white;fill-rule:nonzero;"/> </g><g><path d="M148.63,21.89C148.63,22.01 148.54,22.10 148.42,22.10C148.30,22.10 148.20,22.01 148.20,21.89C148.20,21.77 148.30,21.67 148.42,21.67C148.54,21.67 148.63,21.77 148.63,21.89Z" style="fill:white;fill-rule:nonzero;"/> </g><g><path d="M181.96,34.26C181.96,34.49 181.77,34.67 181.55,34.67L149.51,34.67C149.28,34.67 149.10,34.49 149.10,34.26L149.10,25.70C149.10,25.47 149.28,25.29 149.51,25.29L181.55,25.29C181.77,25.29 181.96,25.47 181.96,25.70L181.96,34.26Z" style="fill:rgb(230,229,229);fill-rule:nonzero;"/> </g><g><rect x="150.05" y="26.24" width="30.95" height="7.47" style="fill:white;fill-rule:nonzero;"/> </g><g><path d="M178.92,29.98C178.92,30.45 178.53,30.84 178.06,30.84C177.58,30.84 177.20,30.45 177.20,29.98C177.20,29.50 177.58,29.12 178.06,29.12C178.53,29.12 178.92,29.50 178.92,29.98Z" style="fill:rgb(204,203,202);fill-rule:nonzero;"/> </g><g><rect x="153.31" y="28.12" width="0.75" height="0.75" style="fill:rgb(204,203,202);fill-rule:nonzero;"/> </g><g><rect x="155.65" y="28.12" width="0.75" height="0.75" style="fill:rgb(204,203,202);fill-rule:nonzero;"/> </g><g><rect x="157.98" y="28.12" width="0.75" height="0.75" style="fill:rgb(204,203,202);fill-rule:nonzero;"/> </g><g><rect x="160.32" y="28.12" width="0.75" height="0.75" style="fill:rgb(204,203,202);fill-rule:nonzero;"/> </g><g><rect x="162.65" y="28.12" width="0.75" height="0.75" style="fill:rgb(204,203,202);fill-rule:nonzero;"/> </g><g><rect x="153.31" y="31.08" width="0.75" height="0.75" style="fill:rgb(204,203,202);fill-rule:nonzero;"/> </g><g><rect x="155.65" y="31.08" width="0.75" height="0.75" style="fill:rgb(204,203,202);fill-rule:nonzero;"/> </g><g><rect x="157.98" y="31.08" width="0.75" height="0.75" style="fill:rgb(204,203,202);fill-rule:nonzero;"/> </g><g><rect x="160.32" y="31.08" width="0.75" height="0.75" style="fill:rgb(204,203,202);fill-rule:nonzero;"/> </g><g><rect x="162.65" y="31.08" width="0.75" height="0.75" style="fill:rgb(204,203,202);fill-rule:nonzero;"/> </g><g><rect x="154.45" y="29.60" width="0.75" height="0.75" style="fill:rgb(204,203,202);fill-rule:nonzero;"/> </g><g><rect x="156.78" y="29.60" width="0.75" height="0.75" style="fill:rgb(204,203,202);fill-rule:nonzero;"/> </g><g><rect x="159.11" y="29.60" width="0.76" height="0.75" style="fill:rgb(204,203,202);fill-rule:nonzero;"/> </g><g><rect x="161.45" y="29.60" width="0.75" height="0.75" style="fill:rgb(204,203,202);fill-rule:nonzero;"/> </g><g><rect x="163.78" y="29.60" width="0.75" height="0.75" style="fill:rgb(204,203,202);fill-rule:nonzero;"/> </g><g><rect x="167.64" y="29.60" width="6.46" height="0.75" style="fill:rgb(204,203,202);fill-rule:nonzero;"/> </g><g><rect x="181.96" y="26.57" width="1.36" height="6.81" style="fill:rgb(204,203,202);fill-rule:nonzero;"/> </g><g><path d="M182.85,27.25C182.85,27.36 182.76,27.46 182.64,27.46C182.52,27.46 182.42,27.36 182.42,27.25C182.42,27.13 182.52,27.03 182.64,27.03C182.76,27.03 182.85,27.13 182.85,27.25Z" style="fill:white;fill-rule:nonzero;"/> </g><g><path d="M182.85,32.71C182.85,32.83 182.76,32.93 182.64,32.93C182.52,32.93 182.42,32.83 182.42,32.71C182.42,32.59 182.52,32.50 182.64,32.50C182.76,32.50 182.85,32.59 182.85,32.71Z" style="fill:white;fill-rule:nonzero;"/> </g><g><rect x="147.74" y="26.57" width="1.36" height="6.81" style="fill:rgb(204,203,202);fill-rule:nonzero;"/> </g><g><path d="M148.63,27.25C148.63,27.36 148.54,27.46 148.42,27.46C148.30,27.46 148.20,27.36 148.20,27.25C148.20,27.13 148.30,27.03 148.42,27.03C148.54,27.03 148.63,27.13 148.63,27.25Z" style="fill:white;fill-rule:nonzero;"/> </g><g><path d="M148.63,32.71C148.63,32.83 148.54,32.93 148.42,32.93C148.30,32.93 148.20,32.83 148.20,32.71C148.20,32.59 148.30,32.50 148.42,32.50C148.54,32.50 148.63,32.59 148.63,32.71Z" style="fill:white;fill-rule:nonzero;"/> </g><g><path d="M181.96,45.09C181.96,45.31 181.77,45.50 181.55,45.50L149.51,45.50C149.28,45.50 149.10,45.31 149.10,45.09L149.10,36.52C149.10,36.30 149.28,36.11 149.51,36.11L181.55,36.11C181.77,36.11 181.96,36.30 181.96,36.52L181.96,45.09Z" style="fill:rgb(230,229,229);fill-rule:nonzero;"/> </g><g><rect x="150.05" y="37.07" width="30.95" height="7.47" style="fill:white;fill-rule:nonzero;"/> </g><g><path d="M178.92,40.81C178.92,41.28 178.53,41.67 178.06,41.67C177.58,41.67 177.20,41.28 177.20,40.81C177.20,40.33 177.58,39.95 178.06,39.95C178.53,39.95 178.92,40.33 178.92,40.81Z" style="fill:rgb(204,203,202);fill-rule:nonzero;"/> </g><g><rect x="153.31" y="38.95" width="0.75" height="0.75" style="fill:rgb(204,203,202);fill-rule:nonzero;"/> </g><g><rect x="155.65" y="38.95" width="0.75" height="0.75" style="fill:rgb(204,203,202);fill-rule:nonzero;"/> </g><g><rect x="157.98" y="38.95" width="0.75" height="0.75" style="fill:rgb(204,203,202);fill-rule:nonzero;"/> </g><g><rect x="160.32" y="38.95" width="0.75" height="0.75" style="fill:rgb(204,203,202);fill-rule:nonzero;"/> </g><g><rect x="162.65" y="38.95" width="0.75" height="0.75" style="fill:rgb(204,203,202);fill-rule:nonzero;"/> </g><g><rect x="153.31" y="41.90" width="0.75" height="0.75" style="fill:rgb(204,203,202);fill-rule:nonzero;"/> </g><g><rect x="155.65" y="41.90" width="0.75" height="0.75" style="fill:rgb(204,203,202);fill-rule:nonzero;"/> </g><g><rect x="157.98" y="41.90" width="0.75" height="0.75" style="fill:rgb(204,203,202);fill-rule:nonzero;"/> </g><g><rect x="160.32" y="41.90" width="0.75" height="0.75" style="fill:rgb(204,203,202);fill-rule:nonzero;"/> </g><g><rect x="162.65" y="41.90" width="0.75" height="0.75" style="fill:rgb(204,203,202);fill-rule:nonzero;"/> </g><g><rect x="154.45" y="40.43" width="0.75" height="0.75" style="fill:rgb(204,203,202);fill-rule:nonzero;"/> </g><g><rect x="156.78" y="40.43" width="0.75" height="0.75" style="fill:rgb(204,203,202);fill-rule:nonzero;"/> </g><g><rect x="159.11" y="40.43" width="0.76" height="0.75" style="fill:rgb(204,203,202);fill-rule:nonzero;"/> </g><g><rect x="161.45" y="40.43" width="0.75" height="0.75" style="fill:rgb(204,203,202);fill-rule:nonzero;"/> </g><g><rect x="163.78" y="40.43" width="0.75" height="0.75" style="fill:rgb(204,203,202);fill-rule:nonzero;"/> </g><g><rect x="167.64" y="40.43" width="6.46" height="0.75" style="fill:rgb(204,203,202);fill-rule:nonzero;"/> </g><g><rect x="181.96" y="37.39" width="1.36" height="6.82" style="fill:rgb(204,203,202);fill-rule:nonzero;"/> </g><g><path d="M182.85,38.07C182.85,38.19 182.76,38.29 182.64,38.29C182.52,38.29 182.42,38.19 182.42,38.07C182.42,37.95 182.52,37.86 182.64,37.86C182.76,37.86 182.85,37.95 182.85,38.07Z" style="fill:white;fill-rule:nonzero;"/> </g><g><path d="M182.85,43.54C182.85,43.66 182.76,43.76 182.64,43.76C182.52,43.76 182.42,43.66 182.42,43.54C182.42,43.42 182.52,43.32 182.64,43.32C182.76,43.32 182.85,43.42 182.85,43.54Z" style="fill:white;fill-rule:nonzero;"/> </g><g><rect x="147.74" y="37.39" width="1.36" height="6.82" style="fill:rgb(204,203,202);fill-rule:nonzero;"/> </g><g><path d="M148.63,38.07C148.63,38.19 148.54,38.29 148.42,38.29C148.30,38.29 148.20,38.19 148.20,38.07C148.20,37.95 148.30,37.86 148.42,37.86C148.54,37.86 148.63,37.95 148.63,38.07Z" style="fill:white;fill-rule:nonzero;"/> </g><g><path d="M148.63,43.54C148.63,43.66 148.54,43.76 148.42,43.76C148.30,43.76 148.20,43.66 148.20,43.54C148.20,43.42 148.30,43.32 148.42,43.32C148.54,43.32 148.63,43.42 148.63,43.54Z" style="fill:white;fill-rule:nonzero;"/> </g><g><rect x="3.84" y="69.38" width="61.24" height="61.24" style="fill:rgb(43,68,87);fill-rule:nonzero;"/> </g><g><path d="M36.45,86.00L19.64,98.14L19.64,118.61L53.26,118.61L53.26,98.14L36.45,86.00Z" style="fill:rgb(255,183,51);fill-rule:nonzero;"/> </g><g><path d="M50.40,84.81L50.40,110.25L22.50,110.25L22.50,84.81C22.50,82.92 20.97,81.39 19.08,81.39L46.98,81.39C48.87,81.39 50.40,82.92 50.40,84.81Z" style="fill:white;fill-rule:nonzero;"/> </g><g><rect x="25.87" y="86.76" width="10.13" height="10.13" style="fill:rgb(255,109,59);fill-rule:nonzero;"/> </g><g><path d="M31.83,92.29C31.58,92.66 31.13,93.08 30.53,93.08C29.96,93.08 29.64,92.67 29.64,92.11C29.64,91.25 30.30,90.43 31.18,90.43C31.70,90.43 31.99,90.80 32.09,91.07L31.83,92.29ZM31.30,88.72C29.47,88.72 27.81,90.28 27.81,92.18C27.81,93.73 28.99,94.93 30.59,94.93C31.24,94.93 31.88,94.73 32.42,94.38L32.26,94.15C31.79,94.45 31.25,94.64 30.63,94.64C29.17,94.64 28.12,93.56 28.12,92.16C28.12,90.52 29.56,89.01 31.27,89.01C32.76,89.01 33.76,90.06 33.76,91.50C33.76,92.71 33.14,93.10 32.80,93.10C32.57,93.10 32.38,92.93 32.38,92.64L32.40,92.46L32.90,90.08L32.31,90.08L32.19,90.62C32.02,90.24 31.64,89.94 31.07,89.94C30.03,89.94 29.00,90.92 29.00,92.14C29.00,92.99 29.53,93.57 30.35,93.57C30.91,93.57 31.44,93.24 31.74,92.80L31.74,92.86C31.77,93.23 32.05,93.57 32.54,93.57C33.28,93.57 34.06,92.87 34.06,91.50C34.06,89.96 32.96,88.72 31.30,88.72Z" style="fill:white;fill-rule:nonzero;"/> </g><g><rect x="37.94" y="86.76" width="9.66" height="1.08" style="fill:rgb(204,203,202);fill-rule:nonzero;"/> </g><g><rect x="37.94" y="89.77" width="9.66" height="1.08" style="fill:rgb(204,203,202);fill-rule:nonzero;"/> </g><g><rect x="37.94" y="92.79" width="9.66" height="1.08" style="fill:rgb(204,203,202);fill-rule:nonzero;"/> </g><g><rect x="37.94" y="95.81" width="9.66" height="1.08" style="fill:rgb(204,203,202);fill-rule:nonzero;"/> </g><g><rect x="25.87" y="98.82" width="21.72" height="1.08" style="fill:rgb(204,203,202);fill-rule:nonzero;"/> </g><g><rect x="25.87" y="101.84" width="10.86" height="1.08" style="fill:rgb(204,203,202);fill-rule:nonzero;"/> </g><g><path d="M19.08,81.39C17.19,81.39 15.66,82.92 15.66,84.81L22.50,84.81C22.50,82.92 20.97,81.39 19.08,81.39Z" style="fill:rgb(204,203,202);fill-rule:nonzero;"/> </g><g><path d="M53.26,98.14L53.26,118.61L36.45,108.38L53.26,98.14Z" style="fill:rgb(255,213,92);fill-rule:nonzero;"/> </g><g><path d="M36.45,108.38L19.64,118.61L19.64,98.14L36.45,108.38Z" style="fill:rgb(255,213,92);fill-rule:nonzero;"/> </g><g><path d="M53.26,118.61L19.64,118.61L36.45,108.38L53.26,118.61Z" style="fill:rgb(255,183,51);fill-rule:nonzero;"/> </g><g><rect x="69.37" y="69.38" width="61.24" height="61.24" style="fill:rgb(255,213,92);fill-rule:nonzero;"/> </g><g><path d="M107.37,115.91L97.06,115.91L98.37,109.54L106.06,109.54L107.37,115.91Z" style="fill:rgb(230,229,229);fill-rule:nonzero;"/> </g><g><path d="M107.37,115.91L104.74,115.91L98.37,109.54L106.06,109.54L107.37,115.91Z" style="fill:rgb(207,206,206);fill-rule:nonzero;"/> </g><g><path d="M110.13,116.68L94.30,116.68L94.30,116.24L94.40,116.01L94.63,115.91L109.80,115.91L110.03,116.01L110.13,116.24L110.13,116.68Z" style="fill:white;fill-rule:nonzero;"/> </g><g><path d="M83.40,83.32C82.87,83.32 82.44,83.75 82.44,84.28L82.44,108.57C82.44,109.10 82.87,109.54 83.40,109.54L121.03,109.54C121.56,109.54 121.99,109.10 121.99,108.57L121.99,84.28C121.99,83.75 121.56,83.32 121.03,83.32L83.40,83.32Z" style="fill:rgb(43,68,87);fill-rule:nonzero;"/> </g><g><rect x="84.44" y="85.32" width="35.55" height="22.22" style="fill:white;fill-rule:nonzero;"/> </g><g><rect x="85.92" y="86.56" width="9.83" height="2.94" style="fill:rgb(255,109,59);fill-rule:nonzero;"/> </g><g><rect x="97.30" y="86.56" width="21.45" height="2.94" style="fill:rgb(230,229,229);fill-rule:nonzero;"/> </g><g><rect x="85.68" y="103.20" width="33.07" height="0.97" style="fill:rgb(230,229,229);fill-rule:nonzero;"/> </g><g><rect x="85.68" y="105.32" width="33.07" height="0.97" style="fill:rgb(230,229,229);fill-rule:nonzero;"/> </g><g><rect x="85.68" y="96.43" width="9.83" height="5.61" style="fill:rgb(33,216,222);fill-rule:nonzero;"/> </g><g><rect x="97.30" y="96.43" width="9.83" height="5.61" style="fill:rgb(33,216,222);fill-rule:nonzero;"/> </g><g><rect x="108.91" y="96.43" width="9.84" height="5.61" style="fill:rgb(33,216,222);fill-rule:nonzero;"/> </g><g><rect x="85.68" y="90.66" width="33.07" height="4.61" style="fill:rgb(204,203,202);fill-rule:nonzero;"/> </g><g><path d="M102.59,109.54L83.40,109.54C82.87,109.54 82.44,109.10 82.44,108.57L82.44,95.54L84.44,95.54L84.44,107.54L100.59,107.54L102.59,109.54Z" style="fill:rgb(39,61,78);fill-rule:nonzero;"/> </g><g><path d="M100.59,107.54L84.44,107.54L84.44,95.54L87.83,95.54C88.32,95.54 88.77,95.73 89.09,96.04L89.19,96.13L89.48,96.43L85.68,96.43L85.68,102.05L95.10,102.05L96.25,103.20L85.68,103.20L85.68,104.17L97.22,104.17L98.38,105.32L85.68,105.32L85.68,106.29L99.35,106.29L100.59,107.54Z" style="fill:rgb(230,229,229);fill-rule:nonzero;"/> </g><g><path d="M97.22,104.17L85.68,104.17L85.68,103.20L96.25,103.20L97.22,104.17Z" style="fill:rgb(207,206,206);fill-rule:nonzero;"/> </g><g><path d="M99.35,106.29L85.68,106.29L85.68,105.32L98.38,105.32L99.35,106.29Z" style="fill:rgb(207,206,206);fill-rule:nonzero;"/> </g><g><path d="M95.10,102.05L85.68,102.05L85.68,96.43L89.48,96.43L95.10,102.05Z" style="fill:rgb(30,194,199);fill-rule:nonzero;"/> </g><g><path d="M79.44,116.68C78.65,116.68 77.99,116.03 77.99,115.23L77.99,97.40C77.99,96.60 78.65,95.95 79.44,95.95L87.83,95.95C88.62,95.95 89.27,96.60 89.27,97.40L89.27,115.23C89.27,116.03 88.62,116.68 87.83,116.68L79.44,116.68Z" style="fill:rgb(43,68,87);fill-rule:nonzero;"/> </g><g><path d="M84.88,115.18C84.88,115.38 84.73,115.53 84.54,115.53L82.73,115.53C82.54,115.53 82.38,115.38 82.38,115.18L82.38,115.04C82.38,114.85 82.54,114.69 82.73,114.69L84.54,114.69C84.73,114.69 84.88,114.85 84.88,115.04L84.88,115.18Z" style="fill:rgb(33,53,70);fill-rule:nonzero;"/> </g><g><path d="M84.05,97.52C84.05,97.75 83.87,97.93 83.64,97.93C83.40,97.93 83.22,97.75 83.22,97.52C83.22,97.29 83.40,97.10 83.64,97.10C83.87,97.10 84.05,97.29 84.05,97.52Z" style="fill:rgb(33,53,70);fill-rule:nonzero;"/> </g><g><path d="M83.83,97.52C83.83,97.63 83.74,97.71 83.64,97.71C83.53,97.71 83.44,97.63 83.44,97.52C83.44,97.41 83.53,97.32 83.64,97.32C83.74,97.32 83.83,97.41 83.83,97.52Z" style="fill:rgb(82,102,119);fill-rule:nonzero;"/> </g><g><rect x="78.81" y="99.08" width="9.63" height="14.46" style="fill:white;fill-rule:nonzero;"/> </g><g><rect x="79.56" y="99.83" width="8.16" height="1.24" style="fill:rgb(255,109,59);fill-rule:nonzero;"/> </g><g><rect x="79.56" y="111.50" width="8.16" height="0.41" style="fill:rgb(230,229,229);fill-rule:nonzero;"/> </g><g><rect x="79.56" y="112.40" width="8.16" height="0.40" style="fill:rgb(230,229,229);fill-rule:nonzero;"/> </g><g><rect x="79.56" y="104.62" width="8.16" height="6.39" style="fill:rgb(33,216,222);fill-rule:nonzero;"/> </g><g><rect x="79.56" y="101.56" width="8.16" height="2.56" style="fill:rgb(204,203,202);fill-rule:nonzero;"/> </g><g><rect x="3.84" y="134.51" width="61.24" height="61.24" style="fill:rgb(255,233,59);fill-rule:nonzero;"/> </g><g><path d="M54.06,179.53C54.06,179.68 54.00,179.83 53.89,179.94C53.78,180.05 53.63,180.11 53.48,180.11L34.06,180.11L34.06,145.94L53.48,145.94C53.63,145.94 53.78,146.00 53.89,146.12C54.00,146.23 54.06,146.38 54.06,146.53L54.06,179.53Z" style="fill:white;fill-rule:nonzero;"/> </g><g><path d="M34.06,180.11L24.98,180.11C24.83,180.11 24.68,180.05 24.57,179.94C24.45,179.83 24.40,179.68 24.40,179.53L24.40,146.53C24.40,146.38 24.45,146.23 24.57,146.12C24.68,146.00 24.83,145.94 24.98,145.94L34.06,145.94L34.06,180.11Z" style="fill:white;fill-rule:nonzero;"/> </g><g><rect x="25.69" y="159.54" width="7.08" height="0.23" style="fill:rgb(230,229,229);fill-rule:nonzero;"/> </g><g><rect x="25.69" y="160.29" width="7.08" height="0.22" style="fill:rgb(230,229,229);fill-rule:nonzero;"/> </g><g><rect x="25.69" y="161.04" width="7.08" height="0.22" style="fill:rgb(230,229,229);fill-rule:nonzero;"/> </g><g><rect x="25.69" y="161.79" width="7.08" height="0.22" style="fill:rgb(230,229,229);fill-rule:nonzero;"/> </g><g><rect x="25.69" y="162.54" width="7.08" height="0.23" style="fill:rgb(230,229,229);fill-rule:nonzero;"/> </g><g><rect x="25.69" y="163.29" width="7.08" height="0.22" style="fill:rgb(230,229,229);fill-rule:nonzero;"/> </g><g><rect x="25.69" y="164.04" width="7.08" height="0.23" style="fill:rgb(230,229,229);fill-rule:nonzero;"/> </g><g><rect x="25.69" y="164.79" width="7.08" height="0.23" style="fill:rgb(230,229,229);fill-rule:nonzero;"/> </g><g><rect x="25.69" y="165.54" width="7.08" height="0.23" style="fill:rgb(230,229,229);fill-rule:nonzero;"/> </g><g><rect x="25.69" y="166.29" width="7.08" height="0.23" style="fill:rgb(230,229,229);fill-rule:nonzero;"/> </g><g><rect x="34.06" y="147.7" width="19.99" height="9.16" style="fill:rgb(43,68,87);fill-rule:nonzero;"/> </g><g><rect x="34.06" y="158.19" width="19.99" height="1.92" style="fill:rgb(217,216,215);fill-rule:nonzero;"/> </g><g><path d="M25.73,156.86C25.41,156.86 25.15,156.6 25.15,156.28L25.15,148.28C25.15,147.96 25.41,147.7 25.73,147.7L32.73,147.7C33.05,147.7 33.31,147.96 33.31,148.28L33.31,156.28C33.31,156.6 33.05,156.86 32.73,156.86L25.73,156.86Z" style="fill:rgb(204,203,202);fill-rule:nonzero;"/> </g><g><path d="M25.73,178.36C25.41,178.36 25.15,178.1 25.15,177.78L25.15,169.78C25.15,169.46 25.41,169.19 25.73,169.19L32.73,169.19C33.05,169.19 33.31,169.46 33.31,169.78L33.31,177.78C33.31,178.1 33.05,178.36 32.73,178.36L25.73,178.36Z" style="fill:rgb(204,203,202);fill-rule:nonzero;"/> </g><g><rect x="35.40" y="161.45" width="4.02" height="2.84" style="fill:rgb(43,68,87);fill-rule:nonzero;"/> </g><g><rect x="40.20" y="161.45" width="4.03" height="2.84" style="fill:rgb(43,68,87);fill-rule:nonzero;"/> </g><g><rect x="45.01" y="161.45" width="4.03" height="2.84" style="fill:rgb(43,68,87);fill-rule:nonzero;"/> </g><g><rect x="35.40" y="165.32" width="4.02" height="2.83" style="fill:rgb(43,68,87);fill-rule:nonzero;"/> </g><g><rect x="40.20" y="165.32" width="4.03" height="2.83" style="fill:rgb(43,68,87);fill-rule:nonzero;"/> </g><g><rect x="45.01" y="165.32" width="4.03" height="2.83" style="fill:rgb(43,68,87);fill-rule:nonzero;"/> </g><g><rect x="35.40" y="169.2" width="4.02" height="2.84" style="fill:rgb(43,68,87);fill-rule:nonzero;"/> </g><g><rect x="40.20" y="169.2" width="4.03" height="2.84" style="fill:rgb(43,68,87);fill-rule:nonzero;"/> </g><g><rect x="45.01" y="169.2" width="4.03" height="2.84" style="fill:rgb(43,68,87);fill-rule:nonzero;"/> </g><g><rect x="35.40" y="173.07" width="4.02" height="2.84" style="fill:rgb(43,68,87);fill-rule:nonzero;"/> </g><g><rect x="40.20" y="173.07" width="4.03" height="2.84" style="fill:rgb(43,68,87);fill-rule:nonzero;"/> </g><g><rect x="45.01" y="173.07" width="4.03" height="2.84" style="fill:rgb(43,68,87);fill-rule:nonzero;"/> </g><g><rect x="50.71" y="161.45" width="2.01" height="0.94" style="fill:rgb(217,216,215);fill-rule:nonzero;"/> </g><g><rect x="50.71" y="163.34" width="2.01" height="0.94" style="fill:rgb(217,216,215);fill-rule:nonzero;"/> </g><g><rect x="50.71" y="165.32" width="2.01" height="0.94" style="fill:rgb(217,216,215);fill-rule:nonzero;"/> </g><g><rect x="50.71" y="167.21" width="2.01" height="0.94" style="fill:rgb(217,216,215);fill-rule:nonzero;"/> </g><g><rect x="50.71" y="169.2" width="2.01" height="0.94" style="fill:rgb(217,216,215);fill-rule:nonzero;"/> </g><g><rect x="50.71" y="171.09" width="2.01" height="0.94" style="fill:rgb(217,216,215);fill-rule:nonzero;"/> </g><g><rect x="45.01" y="177.41" width="7.71" height="0.94" style="fill:rgb(217,216,215);fill-rule:nonzero;"/> </g><g><rect x="40.20" y="177.41" width="4.03" height="0.94" style="fill:rgb(255,109,59);fill-rule:nonzero;"/> </g><g><path d="M32.83,155.58L32.94,155.40L32.98,155.2L32.98,149.72C32.98,149.57 32.92,149.42 32.81,149.31C32.69,149.2 32.54,149.14 32.39,149.14L26.06,149.14C25.91,149.14 25.76,149.2 25.65,149.31C25.54,149.42 25.48,149.57 25.48,149.72L25.48,155.2L25.52,155.40L25.63,155.58L26.40,156.45L26.40,169.61L25.63,170.47L25.52,170.65L25.48,170.86L25.48,176.33C25.48,176.48 25.54,176.63 25.65,176.75C25.76,176.86 25.91,176.92 26.06,176.92L32.39,176.92C32.54,176.92 32.69,176.86 32.81,176.75C32.92,176.63 32.98,176.48 32.98,176.33L32.98,170.86L32.94,170.65L32.83,170.47L32.06,169.61L32.06,156.45L32.83,155.58Z" style="fill:rgb(230,229,229);fill-rule:nonzero;"/> </g><g><path d="M32.39,149.14L30.51,149.14L30.51,176.92L32.39,176.92C32.54,176.92 32.69,176.86 32.81,176.75C32.92,176.63 32.98,176.48 32.98,176.33L32.98,170.86L32.94,170.65L32.83,170.47L32.06,169.61L32.06,156.45L32.83,155.58L32.94,155.40L32.98,155.2L32.98,149.72C32.98,149.57 32.92,149.42 32.81,149.31C32.69,149.2 32.54,149.14 32.39,149.14Z" style="fill:rgb(217,216,215);fill-rule:nonzero;"/> </g><g><rect x="52.27" y="151.15" width="0.46" height="2.25" style="fill:rgb(33,216,222);fill-rule:nonzero;"/> </g><g><rect x="50.50" y="151.15" width="0.45" height="2.25" style="fill:rgb(33,216,222);fill-rule:nonzero;"/> </g><g><rect x="48.73" y="151.15" width="0.46" height="2.25" style="fill:rgb(33,216,222);fill-rule:nonzero;"/> </g><g><rect x="46.96" y="151.15" width="0.46" height="2.25" style="fill:rgb(33,216,222);fill-rule:nonzero;"/> </g><g><rect x="45.19" y="151.15" width="0.45" height="2.25" style="fill:rgb(33,216,222);fill-rule:nonzero;"/> </g><g><rect x="43.42" y="151.15" width="0.46" height="2.25" style="fill:rgb(33,216,222);fill-rule:nonzero;"/> </g><g><rect x="41.65" y="151.15" width="0.45" height="2.25" style="fill:rgb(33,216,222);fill-rule:nonzero;"/> </g><g><rect x="51.72" y="155.05" width="1.00" height="1.00" style="fill:rgb(33,216,222);fill-rule:nonzero;"/> </g><g><rect x="49.71" y="155.05" width="1.00" height="1.00" style="fill:rgb(33,216,222);fill-rule:nonzero;"/> </g><g><rect x="47.69" y="155.05" width="1.00" height="1.00" style="fill:rgb(255,109,59);fill-rule:nonzero;"/> </g><g><path d="M21.81,169.62L21.96,169.76L22.10,169.62L22.10,168.33L21.96,168.19L21.81,168.33L21.81,169.62Z" style="fill:rgb(242,242,242);fill-rule:nonzero;"/> </g><g><path d="M21.36,169.62L21.51,169.77L21.66,169.62L21.63,168.33L21.48,168.19L21.33,168.34L21.36,169.62Z" style="fill:rgb(242,242,242);fill-rule:nonzero;"/> </g><g><path d="M20.98,169.67L21.14,169.79L21.27,169.63L21.10,168.36L20.94,168.23L20.81,168.39L20.98,169.67Z" style="fill:rgb(242,242,242);fill-rule:nonzero;"/> </g><g><path d="M20.60,169.75L20.77,169.86L20.88,169.69L20.58,168.44L20.41,168.33L20.30,168.50L20.60,169.75Z" style="fill:rgb(242,242,242);fill-rule:nonzero;"/> </g><g><path d="M20.23,169.88L20.42,169.97L20.50,169.78L20.07,168.57L19.89,168.48L19.80,168.67L20.23,169.88Z" style="fill:rgb(242,242,242);fill-rule:nonzero;"/> </g><g><path d="M19.87,170.05L20.07,170.11L20.14,169.92L19.58,168.76L19.38,168.69L19.31,168.89L19.87,170.05Z" style="fill:rgb(242,242,242);fill-rule:nonzero;"/> </g><g><path d="M19.53,170.25L19.73,170.30L19.78,170.1L19.10,169.01L18.90,168.96L18.85,169.16L19.53,170.25Z" style="fill:rgb(242,242,242);fill-rule:nonzero;"/> </g><g><path d="M19.21,170.5L19.42,170.52L19.44,170.32L18.64,169.31L18.44,169.29L18.41,169.49L19.21,170.5Z" style="fill:rgb(242,242,242);fill-rule:nonzero;"/> </g><g><path d="M18.91,170.78L19.12,170.78L19.12,170.58L18.21,169.67L18.01,169.67L18.01,169.88L18.91,170.78Z" style="fill:rgb(242,242,242);fill-rule:nonzero;"/> </g><g><path d="M18.65,171.10L18.86,171.08L18.83,170.88L17.83,170.07L17.62,170.09L17.65,170.30L18.65,171.10Z" style="fill:rgb(242,242,242);fill-rule:nonzero;"/> </g><g><path d="M18.43,171.44L18.63,171.4L18.58,171.2L17.50,170.51L17.30,170.55L17.34,170.75L18.43,171.44Z" style="fill:rgb(242,242,242);fill-rule:nonzero;"/> </g><g><path d="M18.25,171.8L18.44,171.73L18.38,171.54L17.22,170.97L17.03,171.04L17.09,171.23L18.25,171.8Z" style="fill:rgb(242,242,242);fill-rule:nonzero;"/> </g><g><path d="M18.11,172.16L18.29,172.08L18.21,171.89L17.00,171.45L16.81,171.54L16.90,171.73L18.11,172.16Z" style="fill:rgb(242,242,242);fill-rule:nonzero;"/> </g><g><path d="M18.01,172.54L18.19,172.44L18.08,172.26L16.83,171.95L16.65,172.06L16.76,172.24L18.01,172.54Z" style="fill:rgb(242,242,242);fill-rule:nonzero;"/> </g><g><path d="M17.95,172.93L18.12,172.80L17.99,172.64L16.72,172.47L16.55,172.59L16.68,172.76L17.95,172.93Z" style="fill:rgb(242,242,242);fill-rule:nonzero;"/> </g><g><path d="M17.93,173.32L18.08,173.18L17.94,173.02L16.66,172.99L16.51,173.13L16.65,173.28L17.93,173.32Z" style="fill:rgb(242,242,242);fill-rule:nonzero;"/> </g><g><path d="M17.94,173.76L18.08,173.61L17.94,173.47L16.65,173.47L16.51,173.61L16.65,173.76L17.94,173.76Z" style="fill:rgb(242,242,242);fill-rule:nonzero;"/> </g><g><path d="M17.94,174.23L18.08,174.08L17.94,173.94L16.65,173.94L16.51,174.08L16.65,174.23L17.94,174.23Z" style="fill:rgb(242,242,242);fill-rule:nonzero;"/> </g><g><path d="M17.94,174.69L18.08,174.55L17.94,174.40L16.65,174.40L16.51,174.55L16.65,174.69L17.94,174.69Z" style="fill:rgb(242,242,242);fill-rule:nonzero;"/> </g><g><path d="M17.94,175.16L18.08,175.01L17.94,174.87L16.65,174.87L16.51,175.01L16.65,175.16L17.94,175.16Z" style="fill:rgb(242,242,242);fill-rule:nonzero;"/> </g><g><path d="M17.94,175.63L18.08,175.48L17.94,175.33L16.65,175.33L16.51,175.48L16.65,175.63L17.94,175.63Z" style="fill:rgb(242,242,242);fill-rule:nonzero;"/> </g><g><path d="M17.94,176.09L18.08,175.94L17.94,175.80L16.65,175.80L16.51,175.94L16.65,176.09L17.94,176.09Z" style="fill:rgb(242,242,242);fill-rule:nonzero;"/> </g><g><path d="M17.94,176.56L18.08,176.41L17.94,176.27L16.65,176.27L16.51,176.41L16.65,176.56L17.94,176.56Z" style="fill:rgb(242,242,242);fill-rule:nonzero;"/> </g><g><path d="M17.94,177.02L18.08,176.88L17.94,176.73L16.65,176.73L16.51,176.88L16.65,177.02L17.94,177.02Z" style="fill:rgb(242,242,242);fill-rule:nonzero;"/> </g><g><path d="M17.94,177.49L18.08,177.34L17.94,177.2L16.65,177.2L16.51,177.35L16.65,177.49L17.94,177.49Z" style="fill:rgb(242,242,242);fill-rule:nonzero;"/> </g><g><path d="M17.94,177.96L18.08,177.81L17.94,177.66L16.65,177.66L16.51,177.81L16.65,177.96L17.94,177.96Z" style="fill:rgb(242,242,242);fill-rule:nonzero;"/> </g><g><path d="M17.94,178.42L18.08,178.28L17.94,178.13L16.65,178.13L16.51,178.28L16.65,178.42L17.94,178.42Z" style="fill:rgb(242,242,242);fill-rule:nonzero;"/> </g><g><path d="M17.94,178.89L18.08,178.74L17.94,178.6L16.65,178.60L16.51,178.74L16.65,178.89L17.94,178.89Z" style="fill:rgb(242,242,242);fill-rule:nonzero;"/> </g><g><path d="M17.94,179.35L18.08,179.21L17.94,179.06L16.65,179.06L16.51,179.21L16.65,179.35L17.94,179.35Z" style="fill:rgb(242,242,242);fill-rule:nonzero;"/> </g><g><path d="M17.94,179.82L18.08,179.68L17.94,179.53L16.65,179.53L16.51,179.68L16.65,179.82L17.94,179.82Z" style="fill:rgb(242,242,242);fill-rule:nonzero;"/> </g><g><path d="M17.94,180.28L18.08,180.14L17.94,179.99L16.65,179.99L16.51,180.14L16.65,180.29L17.94,180.28Z" style="fill:rgb(242,242,242);fill-rule:nonzero;"/> </g><g><path d="M17.94,180.75L18.08,180.61L17.94,180.46L16.65,180.46L16.51,180.61L16.65,180.75L17.94,180.75Z" style="fill:rgb(242,242,242);fill-rule:nonzero;"/> </g><g><path d="M17.94,181.22L18.08,181.07L17.94,180.92L16.65,180.93L16.51,181.07L16.65,181.22L17.94,181.22Z" style="fill:rgb(242,242,242);fill-rule:nonzero;"/> </g><g><path d="M17.94,181.69L18.08,181.54L17.94,181.39L16.65,181.39L16.51,181.54L16.65,181.69L17.94,181.69Z" style="fill:rgb(242,242,242);fill-rule:nonzero;"/> </g><g><path d="M17.94,182.15L18.08,182.00L17.94,181.86L16.65,181.86L16.51,182.00L16.65,182.15L17.94,182.15Z" style="fill:rgb(242,242,242);fill-rule:nonzero;"/> </g><g><path d="M17.94,182.62L18.08,182.47L17.94,182.32L16.65,182.33L16.51,182.47L16.65,182.62L17.94,182.62Z" style="fill:rgb(242,242,242);fill-rule:nonzero;"/> </g><g><path d="M17.94,183.08L18.08,182.94L17.94,182.79L16.65,182.79L16.51,182.94L16.65,183.08L17.94,183.08Z" style="fill:rgb(242,242,242);fill-rule:nonzero;"/> </g><g><path d="M17.94,183.55L18.08,183.40L17.94,183.26L16.65,183.26L16.51,183.40L16.65,183.55L17.94,183.55Z" style="fill:rgb(242,242,242);fill-rule:nonzero;"/> </g><g><path d="M17.94,184.01L18.08,183.87L17.94,183.72L16.65,183.72L16.51,183.87L16.65,184.01L17.94,184.01Z" style="fill:rgb(242,242,242);fill-rule:nonzero;"/> </g><g><path d="M17.94,184.48L18.08,184.33L17.94,184.19L16.65,184.19L16.51,184.33L16.65,184.48L17.94,184.48Z" style="fill:rgb(242,242,242);fill-rule:nonzero;"/> </g><g><path d="M17.94,184.95L18.08,184.80L17.94,184.66L16.65,184.66L16.51,184.80L16.65,184.95L17.94,184.95Z" style="fill:rgb(242,242,242);fill-rule:nonzero;"/> </g><g><path d="M17.93,185.44L18.08,185.30L17.94,185.15L16.66,185.09L16.50,185.23L16.64,185.38L17.93,185.44Z" style="fill:rgb(242,242,242);fill-rule:nonzero;"/> </g><g><path d="M17.84,185.98L18.02,185.86L17.90,185.69L16.63,185.45L16.46,185.57L16.58,185.74L17.84,185.98Z" style="fill:rgb(242,242,242);fill-rule:nonzero;"/> </g><g><path d="M17.68,186.51L17.87,186.41L17.78,186.23L16.56,185.82L16.38,185.90L16.47,186.09L17.68,186.51Z" style="fill:rgb(242,242,242);fill-rule:nonzero;"/> </g><g><path d="M17.45,187.01L17.64,186.94L17.58,186.75L16.44,186.16L16.24,186.23L16.30,186.42L17.45,187.01Z" style="fill:rgb(242,242,242);fill-rule:nonzero;"/> </g><g><path d="M17.14,187.48L17.34,187.45L17.31,187.24L16.26,186.5L16.06,186.53L16.09,186.73L17.14,187.48Z" style="fill:rgb(242,242,242);fill-rule:nonzero;"/> </g><g><path d="M16.75,187.91L16.96,187.90L16.95,187.70L16.03,186.81L15.82,186.81L15.83,187.02L16.75,187.91Z" style="fill:rgb(242,242,242);fill-rule:nonzero;"/> </g><g><path d="M16.30,188.28L16.51,188.31L16.53,188.10L15.75,187.08L15.55,187.06L15.52,187.26L16.30,188.28Z" style="fill:rgb(242,242,242);fill-rule:nonzero;"/> </g><g><path d="M15.82,188.57L16.02,188.63L16.07,188.43L15.45,187.31L15.25,187.25L15.19,187.45L15.82,188.57Z" style="fill:rgb(242,242,242);fill-rule:nonzero;"/> </g><g><path d="M15.30,188.79L15.49,188.87L15.57,188.69L15.12,187.48L14.93,187.4L14.85,187.58L15.30,188.79Z" style="fill:rgb(242,242,242);fill-rule:nonzero;"/> </g><g><path d="M14.77,188.92L14.94,189.04L15.05,188.86L14.77,187.61L14.60,187.5L14.49,187.67L14.77,188.92Z" style="fill:rgb(242,242,242);fill-rule:nonzero;"/> </g><g><path d="M14.22,188.99L14.38,189.12L14.52,188.96L14.42,187.68L14.26,187.55L14.12,187.70L14.22,188.99Z" style="fill:rgb(242,242,242);fill-rule:nonzero;"/> </g><g><path d="M13.68,188.97L13.82,189.12L13.97,188.99L14.05,187.70L13.91,187.55L13.76,187.69L13.68,188.97Z" style="fill:rgb(242,242,242);fill-rule:nonzero;"/> </g><g><path d="M13.14,188.87L13.25,189.05L13.43,188.94L13.69,187.67L13.57,187.50L13.40,187.62L13.14,188.87Z" style="fill:rgb(242,242,242);fill-rule:nonzero;"/> </g><g><path d="M12.62,188.71L12.70,188.89L12.89,188.81L13.33,187.6L13.24,187.41L13.05,187.5L12.62,188.71Z" style="fill:rgb(242,242,242);fill-rule:nonzero;"/> </g><g><path d="M12.12,188.46L12.18,188.66L12.37,188.60L12.98,187.46L12.92,187.27L12.72,187.33L12.12,188.46Z" style="fill:rgb(242,242,242);fill-rule:nonzero;"/> </g><g><path d="M11.65,188.14L11.68,188.35L11.88,188.31L12.65,187.28L12.62,187.08L12.41,187.11L11.65,188.14Z" style="fill:rgb(242,242,242);fill-rule:nonzero;"/> </g><g><path d="M11.23,187.75L11.23,187.95L11.43,187.95L12.34,187.04L12.34,186.84L12.13,186.84L11.23,187.75Z" style="fill:rgb(242,242,242);fill-rule:nonzero;"/> </g><g><path d="M10.86,187.29L10.83,187.5L11.04,187.53L12.07,186.76L12.10,186.56L11.90,186.53L10.86,187.29Z" style="fill:rgb(242,242,242);fill-rule:nonzero;"/> </g><g><path d="M10.58,186.80L10.52,187.00L10.72,187.06L11.85,186.46L11.91,186.26L11.72,186.2L10.58,186.80Z" style="fill:rgb(242,242,242);fill-rule:nonzero;"/> </g><g><path d="M10.38,186.29L10.29,186.47L10.48,186.56L11.68,186.12L11.77,185.94L11.59,185.85L10.38,186.29Z" style="fill:rgb(242,242,242);fill-rule:nonzero;"/> </g><g><path d="M10.25,185.75L10.13,185.92L10.31,186.04L11.57,185.78L11.68,185.61L11.51,185.49L10.25,185.75Z" style="fill:rgb(242,242,242);fill-rule:nonzero;"/> </g><g><path d="M10.20,185.21L10.06,185.36L10.22,185.5L11.50,185.42L11.64,185.26L11.48,185.13L10.20,185.21Z" style="fill:rgb(242,242,242);fill-rule:nonzero;"/> </g><g><path d="M10.22,184.66L10.07,184.79L10.20,184.95L11.48,185.05L11.64,184.92L11.51,184.76L10.22,184.66Z" style="fill:rgb(242,242,242);fill-rule:nonzero;"/> </g><g><path d="M10.33,184.12L10.15,184.23L10.26,184.41L11.52,184.69L11.69,184.58L11.58,184.40L10.33,184.12Z" style="fill:rgb(242,242,242);fill-rule:nonzero;"/> </g><g><path d="M10.50,183.60L10.32,183.69L10.40,183.87L11.60,184.33L11.79,184.24L11.70,184.06L10.50,183.60Z" style="fill:rgb(242,242,242);fill-rule:nonzero;"/> </g><g><path d="M10.76,183.11L10.56,183.16L10.62,183.36L11.74,183.98L11.94,183.93L11.88,183.73L10.76,183.11Z" style="fill:rgb(242,242,242);fill-rule:nonzero;"/> </g><g><path d="M11.09,182.64L10.88,182.67L10.91,182.87L11.93,183.66L12.13,183.63L12.11,183.43L11.09,182.64Z" style="fill:rgb(242,242,242);fill-rule:nonzero;"/> </g><g><path d="M11.49,182.22L11.29,182.22L11.28,182.43L12.17,183.35L12.38,183.36L12.38,183.15L11.49,182.22Z" style="fill:rgb(242,242,242);fill-rule:nonzero;"/> </g><g><path d="M11.95,181.87L11.75,181.84L11.71,182.04L12.46,183.09L12.66,183.12L12.69,182.92L11.95,181.87Z" style="fill:rgb(242,242,242);fill-rule:nonzero;"/> </g><g><path d="M12.44,181.60L12.25,181.53L12.18,181.73L12.77,182.88L12.96,182.94L13.03,182.74L12.44,181.60Z" style="fill:rgb(242,242,242);fill-rule:nonzero;"/> </g><g><path d="M12.96,181.40L12.78,181.31L12.69,181.5L13.10,182.72L13.29,182.81L13.38,182.62L12.96,181.40Z" style="fill:rgb(242,242,242);fill-rule:nonzero;"/> </g><g><path d="M13.50,181.28L13.33,181.17L13.21,181.34L13.45,182.60L13.62,182.72L13.74,182.55L13.50,181.28Z" style="fill:rgb(242,242,242);fill-rule:nonzero;"/> </g><g><path d="M14.05,181.24L13.89,181.10L13.75,181.26L13.81,182.54L13.96,182.68L14.10,182.53L14.05,181.24Z" style="fill:rgb(242,242,242);fill-rule:nonzero;"/> </g><g><path d="M14.54,181.25L14.39,181.10L14.24,181.25L14.25,182.53L14.39,182.68L14.54,182.53L14.54,181.25Z" style="fill:rgb(242,242,242);fill-rule:nonzero;"/> </g><g><path d="M15.00,181.25L14.86,181.10L14.71,181.25L14.71,182.53L14.86,182.68L15.00,182.53L15.00,181.25Z" style="fill:rgb(242,242,242);fill-rule:nonzero;"/> </g><g><path d="M15.47,181.25L15.32,181.10L15.18,181.25L15.18,182.53L15.32,182.68L15.47,182.53L15.47,181.25Z" style="fill:rgb(242,242,242);fill-rule:nonzero;"/> </g><g><path d="M15.93,181.25L15.79,181.10L15.64,181.25L15.64,182.53L15.79,182.68L15.94,182.53L15.93,181.25Z" style="fill:rgb(242,242,242);fill-rule:nonzero;"/> </g><g><path d="M16.40,181.25L16.26,181.10L16.11,181.25L16.11,182.53L16.26,182.68L16.40,182.53L16.40,181.25Z" style="fill:rgb(242,242,242);fill-rule:nonzero;"/> </g><g><path d="M18.47,181.25L18.32,181.10L18.18,181.25L18.18,182.54L18.32,182.68L18.47,182.53L18.47,181.25Z" style="fill:rgb(242,242,242);fill-rule:nonzero;"/> </g><g><path d="M18.97,181.25L18.83,181.10L18.68,181.25L18.68,182.54L18.83,182.68L18.97,182.53L18.97,181.25Z" style="fill:rgb(242,242,242);fill-rule:nonzero;"/> </g><g><path d="M19.48,181.25L19.33,181.10L19.18,181.25L19.18,182.54L19.33,182.68L19.48,182.53L19.48,181.25Z" style="fill:rgb(242,242,242);fill-rule:nonzero;"/> </g><g><path d="M19.98,181.25L19.83,181.10L19.69,181.25L19.69,182.54L19.83,182.68L19.98,182.53L19.98,181.25Z" style="fill:rgb(242,242,242);fill-rule:nonzero;"/> </g><g><path d="M20.48,181.25L20.34,181.10L20.19,181.25L20.19,182.54L20.34,182.68L20.48,182.53L20.48,181.25Z" style="fill:rgb(242,242,242);fill-rule:nonzero;"/> </g><g><path d="M20.99,181.25L20.84,181.10L20.69,181.25L20.69,182.54L20.84,182.68L20.99,182.53L20.99,181.25Z" style="fill:rgb(242,242,242);fill-rule:nonzero;"/> </g><g><path d="M21.49,181.25L21.35,181.10L21.20,181.25L21.20,182.54L21.35,182.68L21.49,182.53L21.49,181.25Z" style="fill:rgb(242,242,242);fill-rule:nonzero;"/> </g><g><path d="M21.99,181.25L21.85,181.10L21.70,181.25L21.70,182.54L21.85,182.68L21.99,182.53L21.99,181.25Z" style="fill:rgb(242,242,242);fill-rule:nonzero;"/> </g><g><path d="M22.50,181.25L22.35,181.10L22.21,181.25L22.21,182.54L22.35,182.68L22.50,182.53L22.50,181.25Z" style="fill:rgb(242,242,242);fill-rule:nonzero;"/> </g><g><path d="M23.00,181.25L22.86,181.10L22.71,181.25L22.71,182.54L22.85,182.68L23.00,182.53L23.00,181.25Z" style="fill:rgb(242,242,242);fill-rule:nonzero;"/> </g><g><path d="M23.50,181.25L23.36,181.10L23.21,181.25L23.21,182.54L23.36,182.68L23.50,182.53L23.50,181.25Z" style="fill:rgb(242,242,242);fill-rule:nonzero;"/> </g><g><path d="M24.01,181.25L23.86,181.10L23.72,181.25L23.72,182.54L23.86,182.68L24.01,182.53L24.01,181.25Z" style="fill:rgb(242,242,242);fill-rule:nonzero;"/> </g><g><path d="M24.51,181.25L24.37,181.10L24.22,181.25L24.22,182.54L24.37,182.68L24.51,182.53L24.51,181.25Z" style="fill:rgb(242,242,242);fill-rule:nonzero;"/> </g><g><path d="M25.02,181.25L24.87,181.10L24.72,181.25L24.72,182.54L24.87,182.68L25.02,182.53L25.02,181.25Z" style="fill:rgb(242,242,242);fill-rule:nonzero;"/> </g><g><path d="M25.52,181.25L25.37,181.10L25.23,181.25L25.23,182.54L25.37,182.68L25.52,182.53L25.52,181.25Z" style="fill:rgb(242,242,242);fill-rule:nonzero;"/> </g><g><path d="M26.02,181.25L25.88,181.10L25.73,181.25L25.73,182.54L25.88,182.68L26.02,182.53L26.02,181.25Z" style="fill:rgb(242,242,242);fill-rule:nonzero;"/> </g><g><path d="M26.53,181.25L26.38,181.10L26.23,181.25L26.23,182.54L26.38,182.68L26.53,182.53L26.53,181.25Z" style="fill:rgb(242,242,242);fill-rule:nonzero;"/> </g><g><path d="M27.03,181.25L26.88,181.10L26.74,181.25L26.74,182.54L26.88,182.68L27.03,182.53L27.03,181.25Z" style="fill:rgb(242,242,242);fill-rule:nonzero;"/> </g><g><path d="M27.53,181.25L27.39,181.10L27.24,181.25L27.24,182.54L27.39,182.68L27.53,182.53L27.53,181.25Z" style="fill:rgb(242,242,242);fill-rule:nonzero;"/> </g><g><path d="M28.04,181.25L27.89,181.10L27.74,181.25L27.74,182.54L27.89,182.68L28.04,182.53L28.04,181.25Z" style="fill:rgb(242,242,242);fill-rule:nonzero;"/> </g><g><path d="M29.11,176.92L29.11,182.11L29.02,182.31C28.92,182.42 28.73,182.42 28.62,182.31L28.53,182.11L28.53,181.25L28.39,181.10L28.25,181.25L28.25,182.11C28.25,182.26 28.31,182.40 28.42,182.51C28.52,182.62 28.67,182.68 28.82,182.68C28.98,182.68 29.12,182.62 29.23,182.51C29.34,182.40 29.40,182.26 29.40,182.11L29.40,176.92L29.11,176.92Z" style="fill:rgb(242,242,242);fill-rule:nonzero;"/> </g><g><path d="M23.72,169.10L23.52,169.02L23.44,168.82L23.44,168.76C23.44,168.61 23.38,168.46 23.27,168.36C23.16,168.24 23.02,168.19 22.86,168.19C22.71,168.19 22.57,168.24 22.46,168.36C22.35,168.46 22.29,168.61 22.29,168.76L22.29,169.62L22.43,169.76L22.58,169.62L22.58,168.76L22.66,168.56C22.77,168.45 22.96,168.45 23.07,168.56L23.15,168.76L23.15,168.82C23.15,168.97 23.21,169.11 23.32,169.23C23.43,169.33 23.57,169.39 23.72,169.39L24.40,169.39L24.40,169.10L23.72,169.10Z" style="fill:rgb(242,242,242);fill-rule:nonzero;"/> </g><g><rect x="134.91" y="69.37" width="61.24" height="61.24" style="fill:rgb(255,109,59);fill-rule:nonzero;"/> </g><g><rect x="166.68" y="88.43" width="22.85" height="25.23" style="fill:rgb(242,242,242);fill-rule:nonzero;"/> </g><g><rect x="166.68" y="86.33" width="22.85" height="2.10" style="fill:rgb(43,68,87);fill-rule:nonzero;"/> </g><g><rect x="172.63" y="87.07" width="14.96" height="0.62" style="fill:white;fill-rule:nonzero;"/> </g><g><path d="M168.93,87.18C168.81,87.18 168.72,87.27 168.72,87.38C168.72,87.49 168.81,87.58 168.93,87.58C169.04,87.58 169.13,87.49 169.13,87.38C169.13,87.27 169.04,87.18 168.93,87.18ZM168.93,87.69C168.75,87.69 168.61,87.55 168.61,87.38C168.61,87.21 168.75,87.07 168.93,87.07C169.10,87.07 169.24,87.21 169.24,87.38C169.24,87.55 169.10,87.69 168.93,87.69Z" style="fill:white;fill-rule:nonzero;"/> </g><g><path d="M170.27,87.18C170.16,87.18 170.06,87.27 170.06,87.38C170.06,87.49 170.16,87.58 170.27,87.58C170.38,87.58 170.47,87.49 170.47,87.38C170.47,87.27 170.38,87.18 170.27,87.18ZM170.27,87.69C170.09,87.69 169.95,87.55 169.95,87.38C169.95,87.21 170.09,87.07 170.27,87.07C170.44,87.07 170.58,87.21 170.58,87.38C170.58,87.55 170.44,87.69 170.27,87.69Z" style="fill:white;fill-rule:nonzero;"/> </g><g><path d="M171.61,87.18C171.50,87.18 171.40,87.27 171.40,87.38C171.40,87.49 171.50,87.58 171.61,87.58C171.72,87.58 171.81,87.49 171.81,87.38C171.81,87.27 171.72,87.18 171.61,87.18ZM171.61,87.69C171.43,87.69 171.29,87.55 171.29,87.38C171.29,87.21 171.43,87.07 171.61,87.07C171.78,87.07 171.92,87.21 171.92,87.38C171.92,87.55 171.78,87.69 171.61,87.69Z" style="fill:white;fill-rule:nonzero;"/> </g><g><rect x="166.68" y="88.43" width="22.85" height="4.20" style="fill:rgb(22,198,204);fill-rule:nonzero;"/> </g><g><rect x="172.70" y="93.27" width="3.57" height="3.57" style="fill:rgb(255,109,59);fill-rule:nonzero;"/> </g><g><rect x="176.91" y="93.27" width="3.57" height="3.57" style="fill:rgb(43,68,87);fill-rule:nonzero;"/> </g><g><rect x="181.12" y="93.27" width="3.57" height="3.57" style="fill:rgb(255,213,92);fill-rule:nonzero;"/> </g><g><rect x="185.32" y="93.27" width="3.57" height="3.57" style="fill:rgb(204,203,202);fill-rule:nonzero;"/> </g><g><rect x="172.70" y="97.47" width="3.57" height="3.57" style="fill:rgb(204,203,202);fill-rule:nonzero;"/> </g><g><rect x="176.91" y="97.47" width="3.57" height="3.57" style="fill:rgb(255,213,92);fill-rule:nonzero;"/> </g><g><rect x="181.12" y="97.47" width="3.57" height="3.57" style="fill:rgb(255,109,59);fill-rule:nonzero;"/> </g><g><rect x="185.32" y="97.47" width="3.57" height="3.57" style="fill:rgb(33,216,222);fill-rule:nonzero;"/> </g><g><rect x="172.70" y="101.68" width="3.57" height="3.57" style="fill:rgb(33,216,222);fill-rule:nonzero;"/> </g><g><rect x="176.91" y="101.68" width="3.57" height="3.57" style="fill:rgb(255,109,59);fill-rule:nonzero;"/> </g><g><rect x="181.12" y="101.68" width="3.57" height="3.57" style="fill:rgb(43,68,87);fill-rule:nonzero;"/> </g><g><rect x="185.32" y="101.68" width="3.57" height="3.57" style="fill:rgb(255,213,92);fill-rule:nonzero;"/> </g><g><rect x="172.70" y="105.89" width="3.57" height="3.57" style="fill:rgb(255,213,92);fill-rule:nonzero;"/> </g><g><rect x="176.91" y="105.89" width="3.57" height="3.57" style="fill:rgb(204,203,202);fill-rule:nonzero;"/> </g><g><rect x="181.12" y="105.89" width="3.57" height="3.57" style="fill:rgb(33,216,222);fill-rule:nonzero;"/> </g><g><rect x="185.32" y="105.89" width="3.57" height="3.57" style="fill:rgb(255,109,59);fill-rule:nonzero;"/> </g><g><rect x="172.70" y="110.09" width="3.57" height="3.57" style="fill:rgb(255,109,59);fill-rule:nonzero;"/> </g><g><rect x="176.91" y="110.09" width="3.57" height="3.57" style="fill:rgb(33,216,222);fill-rule:nonzero;"/> </g><g><rect x="181.12" y="110.09" width="3.57" height="3.57" style="fill:rgb(255,213,92);fill-rule:nonzero;"/> </g><g><rect x="185.32" y="110.09" width="3.57" height="3.57" style="fill:rgb(43,68,87);fill-rule:nonzero;"/> </g><g><rect x="167.31" y="93.27" width="3.74" height="1.20" style="fill:rgb(43,68,87);fill-rule:nonzero;"/> </g><g><rect x="167.31" y="95.04" width="1.62" height="0.31" style="fill:rgb(204,203,202);fill-rule:nonzero;"/> </g><g><rect x="167.31" y="95.93" width="3.27" height="0.31" style="fill:rgb(204,203,202);fill-rule:nonzero;"/> </g><g><rect x="167.31" y="97.70" width="3.74" height="0.31" style="fill:rgb(204,203,202);fill-rule:nonzero;"/> </g><g><rect x="167.31" y="98.59" width="1.62" height="0.31" style="fill:rgb(204,203,202);fill-rule:nonzero;"/> </g><g><rect x="167.31" y="99.48" width="3.74" height="0.31" style="fill:rgb(204,203,202);fill-rule:nonzero;"/> </g><g><rect x="167.31" y="100.36" width="2.96" height="0.31" style="fill:rgb(204,203,202);fill-rule:nonzero;"/> </g><g><rect x="167.31" y="101.25" width="1.48" height="0.31" style="fill:rgb(204,203,202);fill-rule:nonzero;"/> </g><g><rect x="167.31" y="103.02" width="3.74" height="0.31" style="fill:rgb(255,109,59);fill-rule:nonzero;"/> </g><g><rect x="167.31" y="103.91" width="2.64" height="0.31" style="fill:rgb(204,203,202);fill-rule:nonzero;"/> </g><g><rect x="167.31" y="104.80" width="3.27" height="0.31" style="fill:rgb(204,203,202);fill-rule:nonzero;"/> </g><g><rect x="167.31" y="105.69" width="1.30" height="0.31" style="fill:rgb(204,203,202);fill-rule:nonzero;"/> </g><g><rect x="167.31" y="106.57" width="3.74" height="0.31" style="fill:rgb(204,203,202);fill-rule:nonzero;"/> </g><g><rect x="167.31" y="107.46" width="2.64" height="0.31" style="fill:rgb(204,203,202);fill-rule:nonzero;"/> </g><g><rect x="167.31" y="108.35" width="3.74" height="0.31" style="fill:rgb(204,203,202);fill-rule:nonzero;"/> </g><g><rect x="167.31" y="109.23" width="1.12" height="0.31" style="fill:rgb(204,203,202);fill-rule:nonzero;"/> </g><g><rect x="167.31" y="110.12" width="3.74" height="0.31" style="fill:rgb(204,203,202);fill-rule:nonzero;"/> </g><g><path d="M165.23,100C165.23,102.28 163.38,104.13 161.10,104.13C158.82,104.13 156.96,102.28 156.96,100C156.96,97.71 158.82,95.87 161.10,95.87C163.38,95.87 165.23,97.71 165.23,100Z" style="fill:white;fill-rule:nonzero;"/> </g><g><path d="M158.92,100.03L159.33,99.61L160.49,100.77L162.86,98.4L163.28,98.81L160.49,101.60L158.92,100.03Z" style="fill:rgb(204,203,202);fill-rule:nonzero;"/> </g><g><path d="M143.32,112.85C142.33,112.85 141.53,112.05 141.53,111.06L141.53,88.94C141.53,87.95 142.33,87.15 143.32,87.15L153.72,87.15C154.71,87.15 155.51,87.95 155.51,88.94L155.51,111.06C155.51,112.05 154.71,112.85 153.72,112.85L143.32,112.85Z" style="fill:rgb(43,68,87);fill-rule:nonzero;"/> </g><g><path d="M150.07,111C150.07,111.24 149.88,111.43 149.65,111.43L147.40,111.43C147.16,111.43 146.97,111.24 146.97,111L146.97,110.82C146.97,110.58 147.16,110.39 147.40,110.39L149.65,110.39C149.88,110.39 150.07,110.58 150.07,110.82L150.07,111Z" style="fill:rgb(33,53,70);fill-rule:nonzero;"/> </g><g><path d="M149.04,89.09C149.04,89.37 148.81,89.60 148.52,89.60C148.24,89.60 148.01,89.37 148.01,89.09C148.01,88.80 148.24,88.57 148.52,88.57C148.81,88.57 149.04,88.80 149.04,89.09Z" style="fill:rgb(33,53,70);fill-rule:nonzero;"/> </g><g><path d="M148.76,89.09C148.76,89.22 148.66,89.33 148.52,89.33C148.39,89.33 148.28,89.22 148.28,89.09C148.28,88.95 148.39,88.84 148.52,88.84C148.66,88.84 148.76,88.95 148.76,89.09Z" style="fill:rgb(217,216,215);fill-rule:nonzero;"/> </g><g><rect x="142.54" y="91.03" width="11.95" height="17.93" style="fill:white;fill-rule:nonzero;"/> </g><g><rect x="143.01" y="93.64" width="2.39" height="2.38" style="fill:rgb(255,109,59);fill-rule:nonzero;"/> </g><g><rect x="145.88" y="93.64" width="2.39" height="2.38" style="fill:rgb(33,216,222);fill-rule:nonzero;"/> </g><g><rect x="148.75" y="93.64" width="2.38" height="2.38" style="fill:rgb(255,213,92);fill-rule:nonzero;"/> </g><g><rect x="151.61" y="93.64" width="2.39" height="2.38" style="fill:rgb(43,68,87);fill-rule:nonzero;"/> </g><g><rect x="143.01" y="96.50" width="2.39" height="2.38" style="fill:rgb(255,213,92);fill-rule:nonzero;"/> </g><g><rect x="145.88" y="96.50" width="2.39" height="2.38" style="fill:rgb(43,68,87);fill-rule:nonzero;"/> </g><g><rect x="148.75" y="96.50" width="2.38" height="2.38" style="fill:rgb(33,216,222);fill-rule:nonzero;"/> </g><g><rect x="151.61" y="96.50" width="2.39" height="2.38" style="fill:rgb(255,109,59);fill-rule:nonzero;"/> </g><g><rect x="145.88" y="99.37" width="2.39" height="2.38" style="fill:rgb(255,109,59);fill-rule:nonzero;"/> </g><g><rect x="148.75" y="99.37" width="2.38" height="2.38" style="fill:rgb(204,203,202);fill-rule:nonzero;"/> </g><g><rect x="151.61" y="99.37" width="2.39" height="2.38" style="fill:rgb(255,213,92);fill-rule:nonzero;"/> </g><g><rect x="143.01" y="106.08" width="2.39" height="2.39" style="fill:rgb(255,109,59);fill-rule:nonzero;"/> </g><g><rect x="145.88" y="106.08" width="2.39" height="2.39" style="fill:rgb(204,203,202);fill-rule:nonzero;"/> </g><g><rect x="142.54" y="91.03" width="11.95" height="2.10" style="fill:rgb(22,198,204);fill-rule:nonzero;"/> </g><g><rect x="69.37" y="3.84" width="61.24" height="61.25" style="fill:rgb(188,59,255);fill-rule:nonzero;"/> </g><g><path d="M115.6,26.69C111.81,27.25 108.9,30.51 108.9,34.46C108.9,38.41 111.81,41.68 115.6,42.24L115.6,26.69Z" style="fill:white;fill-rule:nonzero;"/> </g><g><path d="M109.62,31.17C109.16,32.17 108.9,33.29 108.9,34.46C108.9,38.41 111.81,41.68 115.6,42.24L115.6,38.08C112.22,37.58 109.63,34.68 109.62,31.17Z" style="fill:rgb(242,242,242);fill-rule:nonzero;"/> </g><g><rect x="115.6" y="26.69" width="0.97" height="15.55" style="fill:rgb(230,229,229);fill-rule:nonzero;"/> </g><g><rect x="116.57" y="34.18" width="2" height="0.55" style="fill:rgb(242,242,242);fill-rule:nonzero;"/> </g><g><path d="M119.37,34.46C119.37,34.90 119.01,35.26 118.57,35.26C118.13,35.26 117.77,34.90 117.77,34.46C117.77,34.02 118.13,33.66 118.57,33.66C119.01,33.66 119.37,34.02 119.37,34.46Z" style="fill:rgb(230,229,229);fill-rule:nonzero;"/> </g><g><rect x="83.85" y="30.16" width="7.48" height="8.60" style="fill:white;fill-rule:nonzero;"/> </g><g><rect x="105.80" y="31.23" width="2.15" height="6.45" style="fill:rgb(230,229,229);fill-rule:nonzero;"/> </g><g><rect x="91.34" y="31.23" width="2.14" height="2.15" style="fill:rgb(43,68,87);fill-rule:nonzero;"/> </g><g><rect x="107.95" y="32.74" width="1.13" height="3.44" style="fill:rgb(43,68,87);fill-rule:nonzero;"/> </g><g><rect x="91.34" y="35.54" width="2.14" height="2.15" style="fill:rgb(43,68,87);fill-rule:nonzero;"/> </g><g><rect x="81.70" y="31.23" width="2.15" height="6.45" style="fill:rgb(43,68,87);fill-rule:nonzero;"/> </g><g><rect x="80.62" y="32.31" width="1.07" height="4.30" style="fill:rgb(82,102,119);fill-rule:nonzero;"/> </g><g><rect x="93.49" y="30.16" width="12.31" height="8.60" style="fill:white;fill-rule:nonzero;"/> </g><g><rect x="83.85" y="35.54" width="7.48" height="3.23" style="fill:rgb(242,242,242);fill-rule:nonzero;"/> </g><g><rect x="93.49" y="35.54" width="12.31" height="3.23" style="fill:rgb(242,242,242);fill-rule:nonzero;"/> </g><g><rect x="104.2" y="31.23" width="0.60" height="0.60" style="fill:rgb(255,109,59);fill-rule:nonzero;"/> </g><g><rect x="102.60" y="31.23" width="0.60" height="0.60" style="fill:rgb(255,109,59);fill-rule:nonzero;"/> </g><g><rect x="88.68" y="31.23" width="1.71" height="0.60" style="fill:rgb(255,109,59);fill-rule:nonzero;"/> </g><g><rect x="89.88" y="27.68" width="0.85" height="2.48" style="fill:rgb(43,68,87);fill-rule:nonzero;"/> </g><g><rect x="94.09" y="27.68" width="0.86" height="2.48" style="fill:rgb(43,68,87);fill-rule:nonzero;"/> </g><g><rect x="89.88" y="38.77" width="0.85" height="2.47" style="fill:rgb(43,68,87);fill-rule:nonzero;"/> </g><g><rect x="94.09" y="38.77" width="0.86" height="2.47" style="fill:rgb(43,68,87);fill-rule:nonzero;"/> </g><g><rect x="88.11" y="10.46" width="8.61" height="17.21" style="fill:white;fill-rule:nonzero;"/> </g><g><rect x="88.54" y="10.89" width="7.74" height="16.35" style="fill:rgb(33,216,222);fill-rule:nonzero;"/> </g><g><rect x="88.54" y="25.18" width="7.74" height="0.17" style="fill:white;fill-rule:nonzero;"/> </g><g><rect x="88.54" y="23.12" width="7.74" height="0.16" style="fill:white;fill-rule:nonzero;"/> </g><g><rect x="88.54" y="21.05" width="7.74" height="0.17" style="fill:white;fill-rule:nonzero;"/> </g><g><rect x="88.54" y="18.98" width="7.74" height="0.17" style="fill:white;fill-rule:nonzero;"/> </g><g><rect x="88.54" y="16.92" width="7.74" height="0.17" style="fill:white;fill-rule:nonzero;"/> </g><g><rect x="88.54" y="14.85" width="7.74" height="0.16" style="fill:white;fill-rule:nonzero;"/> </g><g><rect x="88.54" y="12.79" width="7.74" height="0.17" style="fill:white;fill-rule:nonzero;"/> </g><g><path d="M96.27,27.25L89.27,27.25L88.54,26.52L88.54,25.35L94.38,25.35L96.27,27.25ZM94.21,25.18L88.54,25.18L88.54,23.29L92.31,23.29L94.21,25.18ZM92.14,23.12L88.54,23.12L88.54,21.22L90.25,21.22L92.14,23.12ZM90.08,21.05L88.54,21.05L88.54,19.51L90.08,21.05Z" style="fill:rgb(104,232,237);"/> <path d="M94.38,25.35L88.54,25.35L88.54,25.18L94.21,25.18L94.38,25.35Z" style="fill:white;fill-rule:nonzero;"/> <path d="M92.31,23.29L88.54,23.29L88.54,23.12L92.14,23.12L92.31,23.29Z" style="fill:white;fill-rule:nonzero;"/> <path d="M90.25,21.22L88.54,21.22L88.54,21.05L90.08,21.05L90.25,21.22Z" style="fill:white;fill-rule:nonzero;"/> <path d="M96.29,26.96L94.68,25.35L95.30,25.35L96.29,26.34L96.29,26.96ZM95.13,25.18L94.51,25.18L92.62,23.29L93.23,23.29L95.13,25.18ZM93.06,23.12L92.45,23.12L90.55,21.22L91.17,21.22L93.06,23.12ZM91,21.05L90.38,21.05L88.54,19.21L88.54,19.16L89.10,19.16L91,21.05ZM88.93,18.98L88.54,18.98L88.54,18.59L88.93,18.98Z" style="fill:rgb(104,232,237);fill-rule:nonzero;"/> <path d="M95.30,25.35L94.68,25.35L94.51,25.18L95.13,25.18L95.30,25.35Z" style="fill:white;fill-rule:nonzero;"/> <path d="M93.23,23.29L92.62,23.29L92.45,23.12L93.06,23.12L93.23,23.29Z" style="fill:white;fill-rule:nonzero;"/> <path d="M91.17,21.22L90.55,21.22L90.38,21.05L91,21.05L91.17,21.22Z" style="fill:white;fill-rule:nonzero;"/> <path d="M89.10,19.16L88.54,19.16L88.54,18.98L88.93,18.98L89.10,19.16Z" style="fill:white;fill-rule:nonzero;"/> <path d="M96.29,24.99L94.59,23.29L96.29,23.29L96.29,24.99ZM96.29,23.12L94.42,23.12L92.52,21.22L95.77,21.22L96.29,21.74L96.29,23.12ZM95.60,21.05L92.35,21.05L90.46,19.16L93.71,19.16L95.60,21.05ZM93.53,18.98L90.28,18.98L88.54,17.24L88.54,17.09L91.64,17.09L93.53,18.98Z" style="fill:rgb(104,232,237);fill-rule:nonzero;"/> <path d="M96.29,23.29L94.59,23.29L94.42,23.12L96.29,23.12L96.29,23.29Z" style="fill:white;fill-rule:nonzero;"/> <path d="M95.77,21.22L92.52,21.22L92.35,21.05L95.60,21.05L95.77,21.22Z" style="fill:white;fill-rule:nonzero;"/> <path d="M93.71,19.16L90.46,19.16L90.28,18.98L93.53,18.98L93.71,19.16Z" style="fill:white;fill-rule:nonzero;"/> <path d="M91.47,16.92L88.54,16.92L88.54,15.02L89.57,15.02L91.47,16.92ZM89.40,14.85L88.54,14.85L88.54,13.99L89.40,14.85Z" style="fill:rgb(104,232,237);fill-rule:nonzero;"/> <path d="M91.64,17.09L88.54,17.09L88.54,16.92L91.47,16.92L91.64,17.09Z" style="fill:white;fill-rule:nonzero;"/> <path d="M89.57,15.02L88.54,15.02L88.54,14.85L89.40,14.85L89.57,15.02Z" style="fill:white;fill-rule:nonzero;"/> <path d="M96.29,16.64L94.68,15.02L96.29,15.02L96.29,16.64ZM96.29,14.85L94.50,14.85L92.61,12.96L96.29,12.96L96.29,14.85ZM96.29,12.79L92.44,12.79L90.54,10.89L94.78,10.89L96.29,12.40L96.29,12.79Z" style="fill:rgb(104,232,237);fill-rule:nonzero;"/> <path d="M96.29,15.02L94.68,15.02L94.50,14.85L96.29,14.85L96.29,15.02Z" style="fill:white;fill-rule:nonzero;"/> <path d="M96.29,12.96L92.61,12.96L92.44,12.79L96.29,12.79L96.29,12.96Z" style="fill:white;fill-rule:nonzero;"/> <path d="M96.29,18.42L94.95,17.09L96.29,17.09L96.29,18.42ZM96.17,16.92L94.78,16.92L92.89,15.02L94.27,15.02L96.17,16.92ZM94.10,14.85L92.72,14.85L90.82,12.96L92.21,12.96L94.10,14.85Z" style="fill:rgb(104,232,237);fill-rule:nonzero;"/> <path d="M96.29,17.09L94.95,17.09L94.78,16.92L96.17,16.92L96.29,17.04L96.29,17.09Z" style="fill:white;fill-rule:nonzero;"/> <path d="M94.27,15.02L92.89,15.02L92.72,14.85L94.10,14.85L94.27,15.02Z" style="fill:white;fill-rule:nonzero;"/> <path d="M92.04,12.79L90.65,12.79L88.76,10.89L90.14,10.89L92.04,12.79Z" style="fill:rgb(104,232,237);fill-rule:nonzero;"/> <path d="M92.21,12.96L90.82,12.96L90.65,12.79L92.04,12.79L92.21,12.96Z" style="fill:white;fill-rule:nonzero;"/> </g><g><rect x="90.35" y="10.89" width="0.16" height="16.35" style="fill:white;fill-rule:nonzero;"/> </g><g><rect x="92.33" y="10.89" width="0.16" height="16.35" style="fill:white;fill-rule:nonzero;"/> </g><g><rect x="94.31" y="10.89" width="0.17" height="16.35" style="fill:white;fill-rule:nonzero;"/> </g><g><rect x="88.11" y="41.25" width="8.61" height="17.21" style="fill:white;fill-rule:nonzero;"/> </g><g><rect x="88.54" y="41.68" width="7.74" height="16.35" style="fill:rgb(33,216,222);fill-rule:nonzero;"/> </g><g><rect x="88.54" y="55.96" width="7.74" height="0.17" style="fill:white;fill-rule:nonzero;"/> </g><g><rect x="88.54" y="53.90" width="7.74" height="0.17" style="fill:white;fill-rule:nonzero;"/> </g><g><rect x="88.54" y="51.83" width="7.74" height="0.17" style="fill:white;fill-rule:nonzero;"/> </g><g><rect x="88.54" y="49.77" width="7.74" height="0.17" style="fill:white;fill-rule:nonzero;"/> </g><g><rect x="88.54" y="47.70" width="7.74" height="0.17" style="fill:white;fill-rule:nonzero;"/> </g><g><rect x="88.54" y="45.64" width="7.74" height="0.17" style="fill:white;fill-rule:nonzero;"/> </g><g><rect x="88.54" y="43.57" width="7.74" height="0.16" style="fill:white;fill-rule:nonzero;"/> </g><g><path d="M96.27,58.03L89.27,58.03L88.54,57.30L88.54,56.14L94.38,56.14L96.27,58.03ZM94.21,55.96L88.54,55.96L88.54,54.07L92.31,54.07L94.21,55.96ZM92.14,53.90L88.54,53.90L88.54,52.01L90.25,52.01L92.14,53.90Z" style="fill:rgb(104,232,237);fill-rule:nonzero;"/> <path d="M94.38,56.14L88.54,56.14L88.54,55.96L94.21,55.96L94.38,56.14Z" style="fill:white;fill-rule:nonzero;"/> <path d="M92.31,54.07L88.54,54.07L88.54,53.90L92.14,53.90L92.31,54.07Z" style="fill:white;fill-rule:nonzero;"/> <path d="M90.08,51.83L88.54,51.83L88.54,50.30L90.08,51.83Z" style="fill:rgb(104,232,237);fill-rule:nonzero;"/> <path d="M90.25,52.01L88.54,52.01L88.54,51.83L90.08,51.83L90.25,52.01Z" style="fill:white;fill-rule:nonzero;"/> <path d="M96.29,57.74L94.68,56.14L95.30,56.14L96.29,57.13L96.29,57.74ZM95.13,55.96L94.51,55.96L92.62,54.07L93.23,54.07L95.13,55.96ZM93.06,53.90L92.44,53.90L90.55,52.01L91.17,52.01L93.06,53.90Z" style="fill:rgb(104,232,237);fill-rule:nonzero;"/> <path d="M95.30,56.14L94.68,56.14L94.51,55.96L95.13,55.96L95.30,56.14Z" style="fill:white;fill-rule:nonzero;"/> <path d="M93.23,54.07L92.62,54.07L92.44,53.90L93.06,53.90L93.23,54.07Z" style="fill:white;fill-rule:nonzero;"/> <path d="M91,51.83L90.38,51.83L88.54,50.00L88.54,49.94L89.10,49.94L91,51.83ZM88.93,49.77L88.54,49.77L88.54,49.38L88.93,49.77Z" style="fill:rgb(104,232,237);fill-rule:nonzero;"/> <path d="M91.17,52.01L90.55,52.01L90.38,51.83L91,51.83L91.17,52.01Z" style="fill:white;fill-rule:nonzero;"/> <path d="M89.10,49.94L88.54,49.94L88.54,49.77L88.93,49.77L89.10,49.94Z" style="fill:white;fill-rule:nonzero;"/> <path d="M96.29,55.77L94.59,54.07L96.29,54.07L96.29,55.77ZM96.29,53.90L94.42,53.90L92.52,52.01L95.77,52.01L96.29,52.52L96.29,53.90Z" style="fill:rgb(104,232,237);fill-rule:nonzero;"/> <path d="M96.29,54.07L94.59,54.07L94.42,53.90L96.29,53.90L96.29,54.07Z" style="fill:white;fill-rule:nonzero;"/> <path d="M95.60,51.83L92.35,51.83L90.46,49.94L93.71,49.94L95.60,51.83ZM93.54,49.77L90.29,49.77L88.54,48.03L88.54,47.87L91.64,47.87L93.54,49.77ZM91.47,47.70L88.54,47.70L88.54,45.81L89.57,45.81L91.47,47.70ZM89.40,45.64L88.54,45.64L88.54,44.78L89.40,45.64Z" style="fill:rgb(104,232,237);fill-rule:nonzero;"/> <path d="M95.77,52.01L92.52,52.01L92.35,51.83L95.60,51.83L95.77,52.01Z" style="fill:white;fill-rule:nonzero;"/> <path d="M93.71,49.94L90.46,49.94L90.29,49.77L93.54,49.77L93.71,49.94Z" style="fill:white;fill-rule:nonzero;"/> <path d="M91.64,47.87L88.54,47.87L88.54,47.70L91.47,47.70L91.64,47.87Z" style="fill:white;fill-rule:nonzero;"/> <path d="M89.57,45.81L88.54,45.81L88.54,45.64L89.40,45.64L89.57,45.81Z" style="fill:white;fill-rule:nonzero;"/> <path d="M96.29,47.42L94.67,45.81L96.29,45.81L96.29,47.42ZM96.29,45.64L94.50,45.64L92.61,43.74L96.29,43.74L96.29,45.64ZM96.29,43.57L92.44,43.57L90.54,41.68L94.78,41.68L96.29,43.19L96.29,43.57Z" style="fill:rgb(104,232,237);fill-rule:nonzero;"/> <path d="M96.29,45.81L94.67,45.81L94.50,45.64L96.29,45.64L96.29,45.81Z" style="fill:white;fill-rule:nonzero;"/> <path d="M96.29,43.74L92.61,43.74L92.44,43.57L96.29,43.57L96.29,43.74Z" style="fill:white;fill-rule:nonzero;"/> <path d="M96.29,49.21L94.95,47.87L96.29,47.87L96.29,49.21ZM96.17,47.70L94.78,47.70L92.89,45.81L94.27,45.81L96.17,47.70ZM94.10,45.64L92.72,45.64L90.82,43.74L92.21,43.74L94.10,45.64Z" style="fill:rgb(104,232,237);fill-rule:nonzero;"/> <path d="M96.29,47.87L94.95,47.87L94.78,47.70L96.17,47.70L96.29,47.82L96.29,47.87Z" style="fill:white;fill-rule:nonzero;"/> <path d="M94.27,45.81L92.89,45.81L92.72,45.64L94.10,45.64L94.27,45.81Z" style="fill:white;fill-rule:nonzero;"/> <path d="M92.04,43.57L90.65,43.57L88.76,41.68L90.14,41.68L92.04,43.57Z" style="fill:rgb(104,232,237);fill-rule:nonzero;"/> <path d="M92.21,43.74L90.82,43.74L90.65,43.57L92.04,43.57L92.21,43.74Z" style="fill:white;fill-rule:nonzero;"/> </g><g><rect x="90.35" y="41.68" width="0.16" height="16.35" style="fill:white;fill-rule:nonzero;"/> </g><g><rect x="92.33" y="41.68" width="0.16" height="16.35" style="fill:white;fill-rule:nonzero;"/> </g><g><rect x="94.31" y="41.68" width="0.17" height="16.35" style="fill:white;fill-rule:nonzero;"/> </g><g><rect x="69.37" y="134.51" width="61.24" height="61.25" style="fill:rgb(33,216,222);fill-rule:nonzero;"/> </g><g><rect x="134.90" y="134.51" width="61.24" height="61.25" style="fill:rgb(33,222,69);fill-rule:nonzero;"/> </g><g><path d="M114.49,158.13C114.49,154.5 113,151.21 110.6,148.86C109.73,148.01 108.75,147.28 107.67,146.69C105.83,145.7 103.73,145.13 101.49,145.13C94.31,145.13 88.49,150.95 88.49,158.13L88.49,158.14C87.38,159.41 86.37,160.79 85.50,162.26C86.55,162.88 87.55,163.58 88.49,164.35L88.49,171.13L94.21,171.13C96.19,174.63 97.33,178.68 97.33,182.99C97.33,183.71 97.3,184.43 97.23,185.13C101.10,180.6 106.21,177.15 112.03,175.31C110.49,173.49 109.19,171.46 108.16,169.28C111.95,167.01 114.49,162.87 114.49,158.13Z" style="fill:white;fill-rule:nonzero;"/> </g><g><path d="M101.57,147.94C97.35,147.94 93.77,150.65 92.47,154.43L92.43,154.54C92.37,154.76 92.33,154.99 92.33,155.23C92.33,156.52 93.37,157.57 94.66,157.57L98.5,157.57C98.26,157.90 98.13,158.31 98.13,158.76C98.13,159.92 99.07,160.87 100.24,160.87L102.42,160.87L103.29,163.75L104.73,163.75L103.86,160.87L103.86,160.87C104.50,161.67 105.49,162.18 106.59,162.18C106.71,162.18 106.83,162.17 106.95,162.16C109.33,161.97 111.20,159.99 111.20,157.57C111.20,152.25 106.89,147.94 101.57,147.94Z" style="fill:rgb(255,109,59);fill-rule:nonzero;"/> </g><g><path d="M165.53,141.53C178.56,141.53 189.13,152.1 189.13,165.13C189.13,178.16 178.56,188.73 165.53,188.73C152.49,188.73 141.93,178.16 141.93,165.13C141.93,152.1 152.49,141.53 165.53,141.53ZM165.53,145.03C176.63,145.03 185.63,154.03 185.63,165.13C185.63,176.24 176.63,185.24 165.53,185.24C154.42,185.24 145.42,176.24 145.42,165.13C145.42,154.03 154.42,145.03 165.53,145.03Z" style="fill:white;"/> </g><g><path d="M164.86,173.32L162.48,175.62L151.98,164.78L154.35,162.48L162.62,171.01L179.05,155.09L181.29,157.39L164.86,173.32Z" style="fill:white;"/> </g></g></g></svg>
