<svg viewBox="10 0 110 40" version="1.1" xmlns="http://www.w3.org/2000/svg" xmlns:xlink="http://www.w3.org/1999/xlink" xml:space="preserve" style="fill-rule:evenodd;clip-rule:evenodd;stroke-linejoin:round;stroke-miterlimit:1.41421;">
<g fill="white">
<path d="M10,7.77838C10,6.77838 9.85,5.76171 9.55,4.72838C10.55,4.19504 11.6167,3.92838 12.75,3.92838C13.4167,3.92838 13.75,4.17838 13.75,4.67838L13.75,15.0784C14.7833,14.2117 15.9167,13.7784 17.15,13.7784C18.3833,13.7784 19.3917,14.195 20.175,15.0284C20.9583,15.8617 21.35,17.045 21.35,18.5784L21.35,34.6284C21.35,35.3284 21.475,35.8284 21.725,36.1284C21.975,36.4284 22.45,36.5784 23.15,36.5784C23.1833,37.445 22.9583,38.1117 22.475,38.5784C21.9917,39.045 21.2833,39.2784 20.35,39.2784C19.4167,39.2784 18.725,38.995 18.275,38.4284C17.825,37.8617 17.6,36.9284 17.6,35.6284L17.6,18.8784C17.6,17.7784 17.0333,17.2284 15.9,17.2284C14.9667,17.2284 14.25,17.745 13.75,18.7784L13.75,34.6784C13.75,36.2784 13.8667,37.6117 14.1,38.6784C13.1,38.8784 12.0167,38.9784 10.85,38.9784C10.2833,38.9784 10,38.7284 10,38.2284L10,7.77838Z" />
<path d="M25,34.1784L25,19.0784C25,17.4117 25.5167,16.1117 26.55,15.1784C27.5833,14.245 28.9833,13.7784 30.75,13.7784C32.5167,13.7784 33.8917,14.2117 34.875,15.0784C35.8583,15.945 36.35,17.2117 36.35,18.8784L36.35,33.9784C36.35,35.645 35.825,36.945 34.775,37.8784C33.725,38.8117 32.3167,39.2784 30.55,39.2784C28.7833,39.2784 27.4167,38.845 26.45,37.9784C25.4833,37.1117 25,35.845 25,34.1784ZM28.75,18.8784L28.75,34.1784C28.75,34.745 28.9333,35.22 29.3,35.6034C29.6667,35.9867 30.125,36.1784 30.675,36.1784C31.225,36.1784 31.6833,35.9867 32.05,35.6034C32.4167,35.22 32.6,34.745 32.6,34.1784L32.6,18.8784C32.6,18.3117 32.4167,17.8367 32.05,17.4534C31.6833,17.07 31.225,16.8784 30.675,16.8784C30.125,16.8784 29.6667,17.07 29.3,17.4534C28.9333,17.8367 28.75,18.3117 28.75,18.8784Z" />
<path d="M39.55,34.1784L39.55,19.0784C39.55,17.4117 40.0667,16.1117 41.1,15.1784C42.1333,14.245 43.5333,13.7784 45.3,13.7784C47.0667,13.7784 48.4417,14.2117 49.425,15.0784C50.4083,15.945 50.9,17.2117 50.9,18.8784L50.9,33.9784C50.9,35.645 50.375,36.945 49.325,37.8784C48.275,38.8117 46.8667,39.2784 45.1,39.2784C43.3333,39.2784 41.9667,38.845 41,37.9784C40.0333,37.1117 39.55,35.845 39.55,34.1784ZM43.3,18.8784L43.3,34.1784C43.3,34.745 43.4833,35.22 43.85,35.6034C44.2167,35.9867 44.675,36.1784 45.225,36.1784C45.775,36.1784 46.2333,35.9867 46.6,35.6034C46.9667,35.22 47.15,34.745 47.15,34.1784L47.15,18.8784C47.15,18.3117 46.9667,17.8367 46.6,17.4534C46.2333,17.07 45.775,16.8784 45.225,16.8784C44.675,16.8784 44.2167,17.07 43.85,17.4534C43.4833,17.8367 43.3,18.3117 43.3,18.8784Z" />
<path d="M61.9,18.3784C61.9,17.1117 61.7833,15.745 61.55,14.2784C62.55,14.145 63.6333,14.0784 64.8,14.0784C65.3667,14.0784 65.65,14.3284 65.65,14.8284L65.65,23.9284C65.65,25.4617 65.15,26.6784 64.15,27.5784C65.15,28.4117 65.65,29.6284 65.65,31.2284L65.65,34.6284C65.65,35.3284 65.775,35.8284 66.025,36.1284C66.275,36.4284 66.75,36.5784 67.45,36.5784C67.4833,37.4117 67.2417,38.07 66.725,38.5534C66.2083,39.0367 65.4833,39.2784 64.55,39.2784C63.6167,39.2784 62.9417,39.0117 62.525,38.4784C62.1083,37.945 61.9,37.0617 61.9,35.8284L61.9,31.1784C61.9,30.5784 61.7083,30.095 61.325,29.7284C60.9417,29.3617 60.4667,29.1784 59.9,29.1784L58.05,29.1784L58.05,34.6784C58.05,36.2784 58.1667,37.6117 58.4,38.6784C57.4,38.8784 56.3167,38.9784 55.15,38.9784C54.5833,38.9784 54.3,38.7284 54.3,38.2284L54.3,7.77838C54.3,6.77838 54.15,5.76171 53.85,4.72838C54.85,4.19504 55.9167,3.92838 57.05,3.92838C57.7167,3.92838 58.05,4.17838 58.05,4.67838L58.05,26.1784L60,26.1784C60.5,26.1784 60.9417,25.9867 61.325,25.6034C61.7083,25.22 61.9,24.745 61.9,24.1784L61.9,18.3784Z" />
<path d="M73.2,35.7784L78.4,35.7784L81,35.5284C81.1667,36.395 81.25,37.1534 81.25,37.8034C81.25,38.4534 81.0333,38.7784 80.6,38.7784L70.55,38.7784C70.1167,38.7784 69.7333,38.6034 69.4,38.2534C69.0667,37.9034 68.9,37.0867 68.9,35.8034C68.9,34.52 69.1833,33.0034 69.75,31.2534C70.3167,29.5034 71,27.8867 71.8,26.4034C72.6,24.92 73.4,23.4117 74.2,21.8784C76.1333,18.245 77.1,14.6284 77.1,11.0284C77.1,9.66171 76.4,8.97838 75,8.97838C74.3333,8.97838 73.8167,9.15338 73.45,9.50338C73.0833,9.85338 72.9,10.345 72.9,10.9784L72.9,13.3284L73.05,15.8784C72.6167,15.9784 72.175,16.0284 71.725,16.0284C71.275,16.0284 70.8333,15.9617 70.4,15.8284C69.5667,15.595 69.15,15.1784 69.15,14.5784L69.15,10.4784C69.15,9.04504 69.6667,7.90338 70.7,7.05338C71.7333,6.20338 73.1333,5.77838 74.9,5.77838C78.9,5.77838 80.9,7.24504 80.9,10.1784C80.9,14.4784 80,18.445 78.2,22.0784C77.4333,23.5784 76.6667,25.0117 75.9,26.3784C74.1,29.745 73.2,32.8784 73.2,35.7784Z" />
<path d="M91.35,17.4784L89.4,17.4784C88.8333,17.4784 88.375,17.6534 88.025,18.0034C87.675,18.3534 87.5,18.8117 87.5,19.3784L87.5,34.1284C87.5,35.295 87.9833,35.8784 88.95,35.8784C89.45,35.8784 89.925,35.6867 90.375,35.3034C90.825,34.92 91.15,34.5117 91.35,34.0784L91.35,17.4784ZM91.35,7.77838C91.35,6.77838 91.2,5.76171 90.9,4.72838C91.9,4.19504 92.9667,3.92838 94.1,3.92838C94.7667,3.92838 95.1,4.17838 95.1,4.67838L95.1,34.6284C95.1,35.3284 95.225,35.8284 95.475,36.1284C95.725,36.4284 96.2,36.5784 96.9,36.5784C96.9333,37.445 96.7083,38.1117 96.225,38.5784C95.7417,39.045 95.05,39.2784 94.15,39.2784C92.8167,39.2784 91.9667,38.7617 91.6,37.7284C90.5667,38.7617 89.4,39.2784 88.1,39.2784C86.8,39.2784 85.75,38.8367 84.95,37.9534C84.15,37.07 83.75,35.8117 83.75,34.1784L83.75,19.5784C83.75,17.9117 84.2667,16.6117 85.3,15.6784C86.3333,14.745 87.7333,14.2784 89.5,14.2784L91.35,14.2784L91.35,7.77838Z" />
<path d="M98.85,34.1784L98.85,19.0784C98.85,17.4117 99.3667,16.1117 100.4,15.1784C101.433,14.245 102.833,13.7784 104.6,13.7784C106.367,13.7784 107.742,14.2117 108.725,15.0784C109.708,15.945 110.2,17.2117 110.2,18.8784L110.2,33.9784C110.2,35.645 109.675,36.945 108.625,37.8784C107.575,38.8117 106.167,39.2784 104.4,39.2784C102.633,39.2784 101.267,38.845 100.3,37.9784C99.3333,37.1117 98.85,35.845 98.85,34.1784ZM102.6,18.8784L102.6,34.1784C102.6,34.745 102.783,35.22 103.15,35.6034C103.517,35.9867 103.975,36.1784 104.525,36.1784C105.075,36.1784 105.533,35.9867 105.9,35.6034C106.267,35.22 106.45,34.745 106.45,34.1784L106.45,18.8784C106.45,18.3117 106.267,17.8367 105.9,17.4534C105.533,17.07 105.075,16.8784 104.525,16.8784C103.975,16.8784 103.517,17.07 103.15,17.4534C102.783,17.8367 102.6,18.3117 102.6,18.8784Z" />
</g>
</svg>
